<svg width="26" height="15" viewBox="0 0 26 15" fill="none" xmlns="http://www.w3.org/2000/svg">
<path d="M9.15353 2.89716C9.99021 3.43645 10.4023 4.33947 10.4023 5.05434C10.4023 6.03261 10.1775 7.36204 8.09207 8.16471C5.76935 9.06772 3.42165 8.1898 3.15941 5.95735C1.89815 6.58444 0.936582 7.23661 0 8.10201L1.81073 14.9875H23.6768L25.5 8.10201C24.5885 7.27425 23.5644 6.55936 22.3406 5.95735C22.0784 8.1898 19.7307 9.06772 17.408 8.16471C15.3101 7.34949 15.0977 6.03261 15.0977 5.05434C15.0977 4.33947 15.5099 3.44899 16.3464 2.89716L12.7001 0L9.15353 2.89716Z" fill="#D4B464"/>
</svg>
