<svg width="1358" height="462" viewBox="0 0 1358 462" fill="none" xmlns="http://www.w3.org/2000/svg">
<path d="M826.591 233.225C826.587 233.138 826.583 233.052 826.583 233.052C826.583 233.052 826.486 233.056 826.49 233.142C826.494 233.228 826.499 233.315 826.596 233.311C826.499 233.315 826.596 233.311 826.591 233.225Z" fill="#C3A136"/>
<path d="M834.067 210.253C834.062 210.166 834.058 210.08 834.058 210.08L833.965 210.17C833.97 210.257 833.974 210.343 833.974 210.343C833.974 210.343 834.071 210.339 834.067 210.253Z" fill="#C3A136"/>
<path d="M840.151 236.136C840.147 236.05 840.142 235.963 840.142 235.963C840.045 235.967 840.05 236.054 840.05 236.054C840.054 236.14 840.059 236.226 840.059 236.226C840.059 236.226 840.156 236.223 840.151 236.136Z" fill="#C3A136"/>
<path d="M847.393 214.299C847.388 214.212 847.384 214.126 847.384 214.126L847.291 214.216C847.296 214.303 847.3 214.389 847.3 214.389C847.3 214.389 847.3 214.389 847.393 214.299Z" fill="#C3A136"/>
<path d="M850.45 258.907C850.445 258.821 850.445 258.821 850.344 258.738C850.247 258.742 850.251 258.829 850.251 258.829C850.256 258.915 850.256 258.915 850.357 258.997C850.357 258.997 850.353 258.911 850.45 258.907Z" fill="#C3A136"/>
<path d="M853.508 238.883C853.499 238.71 853.495 238.624 853.398 238.628C853.301 238.632 853.305 238.718 853.213 238.809C853.222 238.981 853.226 239.068 853.323 239.064C853.424 239.146 853.517 239.056 853.508 238.883Z" fill="#C3A136"/>
<path d="M860.419 218.184C860.507 218.007 860.499 217.834 860.402 217.838C860.3 217.756 860.212 217.933 860.124 218.109C860.036 218.286 860.044 218.458 860.141 218.455C860.238 218.451 860.331 218.36 860.419 218.184Z" fill="#C3A136"/>
<path d="M871.099 197.072C871.095 196.986 871.095 196.986 871.099 197.072C871.095 196.986 870.998 196.99 871.099 197.072C871.002 197.076 871.002 197.076 871.099 197.072Z" fill="#C3A136"/>
<path d="M863.555 260.539C863.551 260.453 863.45 260.371 863.445 260.284C863.348 260.288 863.256 260.378 863.26 260.465C863.269 260.637 863.273 260.724 863.37 260.72C863.472 260.802 863.463 260.63 863.555 260.539Z" fill="#C3A136"/>
<path d="M866.57 241.555C866.658 241.379 866.552 241.21 866.455 241.214C866.358 241.218 866.169 241.312 866.177 241.485C866.186 241.657 866.195 241.83 866.389 241.822C866.486 241.818 866.579 241.728 866.57 241.555Z" fill="#C3A136"/>
<path d="M873.141 221.821C873.225 221.558 873.216 221.386 873.018 221.307C872.916 221.225 872.634 221.409 872.551 221.672C872.467 221.935 872.476 222.108 872.674 222.186C872.872 222.265 873.058 222.084 873.141 221.821Z" fill="#C3A136"/>
<path d="M883.006 201.868C883.098 201.777 883.094 201.691 882.997 201.695C882.9 201.699 882.803 201.703 882.812 201.876C882.719 201.966 882.724 202.052 882.821 202.048C882.913 201.958 883.01 201.954 883.006 201.868Z" fill="#C3A136"/>
<path d="M896.463 181.855C896.463 181.855 896.366 181.859 896.463 181.855C896.366 181.859 896.371 181.945 896.463 181.855C896.371 181.945 896.371 181.945 896.463 181.855Z" fill="#C3A136"/>
<path d="M876.287 279.578C876.283 279.491 876.181 279.409 876.181 279.409C876.084 279.413 876.089 279.499 876.093 279.586C876.098 279.672 876.199 279.754 876.199 279.754C876.296 279.75 876.292 279.664 876.287 279.578Z" fill="#C3A136"/>
<path d="M876.463 262.093C876.454 261.92 876.348 261.752 876.251 261.756C876.154 261.759 876.061 261.85 875.973 262.026C875.982 262.199 876.088 262.368 876.185 262.364C876.286 262.446 876.374 262.27 876.463 262.093Z" fill="#C3A136"/>
<path d="M879.424 243.976C879.512 243.8 879.402 243.545 879.208 243.553C879.014 243.56 878.921 243.651 878.838 243.914C878.75 244.09 878.855 244.259 879.054 244.338C879.248 244.33 879.433 244.149 879.424 243.976Z" fill="#C3A136"/>
<path d="M885.564 225.298C885.652 225.122 885.639 224.863 885.44 224.784C885.242 224.706 885.057 224.886 884.973 225.149C884.885 225.326 884.898 225.585 885.096 225.663C885.29 225.655 885.48 225.561 885.564 225.298Z" fill="#C3A136"/>
<path d="M894.701 206.326C894.789 206.149 894.785 206.063 894.683 205.98C894.586 205.984 894.494 206.075 894.401 206.165C894.309 206.255 894.317 206.428 894.419 206.51C894.52 206.593 894.613 206.502 894.701 206.326Z" fill="#C3A136"/>
<path d="M906.955 187.486C906.95 187.4 906.95 187.4 906.95 187.4C906.95 187.4 906.853 187.404 906.858 187.49C906.765 187.581 906.765 187.581 906.867 187.663C906.862 187.577 906.862 187.577 906.955 187.486Z" fill="#C3A136"/>
<path d="M891.039 296.286C891.039 296.286 891.035 296.197 891.039 296.286C891.035 296.197 890.939 296.29 891.039 296.286Z" fill="#C3A136"/>
<path d="M888.859 280.28C888.855 280.194 888.749 280.025 888.652 280.029C888.555 280.033 888.463 280.123 888.467 280.209C888.476 280.382 888.577 280.464 888.674 280.46C888.776 280.543 888.864 280.366 888.859 280.28Z" fill="#C3A136"/>
<path d="M889.075 263.572C889.066 263.4 888.956 263.144 888.859 263.148C888.665 263.156 888.576 263.333 888.488 263.509C888.497 263.682 888.607 263.937 888.704 263.933C888.995 263.922 889.088 263.831 889.075 263.572Z" fill="#C3A136"/>
<path d="M892.177 246.315C892.256 245.966 892.146 245.711 891.948 245.632C891.749 245.554 891.472 245.824 891.392 246.174C891.313 246.523 891.423 246.778 891.622 246.857C891.82 246.935 892.093 246.578 892.177 246.315Z" fill="#C3A136"/>
<path d="M897.88 228.606C898.057 228.253 897.942 227.912 897.744 227.833C897.545 227.755 897.171 228.029 896.994 228.383C896.818 228.736 896.933 229.077 897.131 229.156C897.422 229.144 897.801 228.956 897.88 228.606Z" fill="#C3A136"/>
<path d="M906.295 210.701C906.471 210.348 906.458 210.089 906.259 210.011C906.061 209.932 905.779 210.117 905.603 210.47C905.422 210.737 905.44 211.082 905.638 211.161C905.832 211.153 906.114 210.968 906.295 210.701Z" fill="#C3A136"/>
<path d="M917.239 192.867C917.332 192.777 917.328 192.69 917.226 192.608C917.125 192.525 917.032 192.616 917.037 192.702C916.944 192.792 916.953 192.965 916.953 192.965C917.05 192.961 917.147 192.957 917.239 192.867Z" fill="#C3A136"/>
<path d="M930.732 175.448C930.728 175.362 930.732 175.448 930.732 175.448C930.635 175.452 930.639 175.539 930.732 175.448C930.736 175.535 930.639 175.539 930.732 175.448Z" fill="#C3A136"/>
<path d="M902.993 296.32C902.988 296.233 902.887 296.151 902.887 296.151C902.79 296.155 902.794 296.241 902.799 296.328C902.803 296.414 902.9 296.41 902.9 296.41C902.997 296.406 903.094 296.402 902.993 296.32Z" fill="#C3A136"/>
<path d="M901.136 280.907C901.127 280.735 901.022 280.566 900.925 280.57C900.828 280.574 900.735 280.664 900.744 280.837C900.753 281.009 900.858 281.178 900.955 281.174C901.154 281.253 901.145 281.08 901.136 280.907Z" fill="#C3A136"/>
<path d="M901.682 264.965C901.766 264.702 901.559 264.451 901.365 264.459C901.171 264.467 900.985 264.647 900.902 264.91C900.818 265.173 901.025 265.424 901.219 265.416C901.51 265.405 901.695 265.224 901.682 264.965Z" fill="#C3A136"/>
<path d="M904.626 248.406C904.705 248.057 904.591 247.716 904.3 247.728C904.004 247.653 903.727 247.924 903.647 248.273C903.568 248.622 903.683 248.964 903.973 248.952C904.172 249.031 904.551 248.842 904.626 248.406Z" fill="#C3A136"/>
<path d="M909.99 231.663C910.162 231.224 910.043 230.796 909.747 230.721C909.452 230.647 909.077 230.922 908.905 231.361C908.734 231.801 908.853 232.229 909.148 232.303C909.346 232.382 909.818 232.103 909.99 231.663Z" fill="#C3A136"/>
<path d="M917.483 214.747C917.664 214.48 917.646 214.135 917.448 214.057C917.249 213.978 916.967 214.163 916.791 214.516C916.61 214.783 916.623 215.042 916.822 215.12C917.02 215.199 917.302 215.014 917.483 214.747Z" fill="#C3A136"/>
<path d="M927.409 197.906C927.498 197.729 927.586 197.553 927.387 197.474C927.286 197.392 927.101 197.572 927.008 197.662C926.823 197.843 926.832 198.016 926.933 198.098C927.035 198.181 927.224 198.086 927.409 197.906Z" fill="#C3A136"/>
<path d="M939.399 181.5C939.491 181.41 939.487 181.323 939.39 181.327C939.39 181.327 939.293 181.331 939.2 181.422C939.108 181.512 939.112 181.598 939.112 181.598C939.209 181.594 939.306 181.59 939.399 181.5Z" fill="#C3A136"/>
<path d="M918.392 310.491C918.294 310.495 918.294 310.495 918.392 310.491C918.294 310.495 918.396 310.579 918.392 310.491C918.392 310.491 918.396 310.579 918.392 310.491Z" fill="#C3A136"/>
<path d="M914.943 296.268C914.939 296.182 914.838 296.1 914.741 296.103C914.644 296.107 914.551 296.198 914.555 296.284C914.56 296.37 914.661 296.453 914.758 296.449C914.86 296.531 914.948 296.355 914.943 296.268Z" fill="#C3A136"/>
<path d="M913.413 281.535C913.404 281.362 913.197 281.111 913.1 281.115C912.906 281.123 912.818 281.299 912.827 281.472C912.836 281.645 912.946 281.9 913.14 281.892C913.334 281.884 913.422 281.708 913.413 281.535Z" fill="#C3A136"/>
<path d="M914.087 266.193C914.073 265.934 913.963 265.679 913.765 265.6C913.571 265.608 913.289 265.793 913.302 266.052C913.218 266.315 913.425 266.566 913.624 266.644C913.818 266.637 914.003 266.456 914.087 266.193Z" fill="#C3A136"/>
<path d="M916.784 250.51C916.863 250.16 916.748 249.819 916.453 249.744C916.158 249.67 915.88 249.941 915.805 250.376C915.73 250.812 915.845 251.153 916.136 251.142C916.427 251.13 916.704 250.859 916.784 250.51Z" fill="#C3A136"/>
<path d="M921.799 234.559C921.967 234.033 921.848 233.606 921.456 233.535C921.063 233.464 920.689 233.739 920.424 234.269C920.252 234.708 920.376 235.223 920.768 235.293C921.16 235.364 921.632 235.085 921.799 234.559Z" fill="#C3A136"/>
<path d="M928.561 218.538C928.737 218.185 928.715 217.753 928.42 217.679C928.124 217.604 927.75 217.879 927.573 218.232C927.401 218.672 927.419 219.017 927.714 219.092C928.014 219.252 928.389 218.978 928.561 218.538Z" fill="#C3A136"/>
<path d="M937.275 202.698C937.456 202.431 937.447 202.258 937.249 202.18C937.147 202.097 936.865 202.282 936.777 202.458C936.689 202.635 936.605 202.898 936.803 202.976C936.905 203.059 937.094 202.965 937.275 202.698Z" fill="#C3A136"/>
<path d="M947.854 187.214C947.947 187.124 947.938 186.951 947.938 186.951C947.836 186.869 947.744 186.959 947.656 187.136C947.563 187.226 947.572 187.399 947.572 187.399C947.669 187.395 947.761 187.304 947.854 187.214Z" fill="#C3A136"/>
<path d="M960.024 172.445C960.02 172.359 960.02 172.359 960.024 172.445C959.923 172.362 959.927 172.449 960.024 172.445Z" fill="#C3A136"/>
<path d="M929.637 309.95C929.633 309.863 929.633 309.863 929.637 309.95C929.535 309.867 929.535 309.867 929.539 309.954C929.539 309.954 929.544 310.041 929.637 309.95C929.637 309.95 929.641 310.037 929.637 309.95Z" fill="#C3A136"/>
<path d="M926.603 296.229C926.594 296.056 926.497 296.06 926.4 296.064C926.303 296.068 926.211 296.158 926.215 296.244C926.219 296.331 926.321 296.413 926.418 296.409C926.612 296.401 926.704 296.311 926.603 296.229Z" fill="#C3A136"/>
<path d="M925.58 281.907C925.566 281.648 925.46 281.479 925.17 281.491C924.976 281.499 924.79 281.68 924.804 281.939C924.817 282.198 925.02 282.363 925.214 282.355C925.412 282.433 925.593 282.166 925.58 281.907Z" fill="#C3A136"/>
<path d="M926.39 267.339C926.465 266.903 926.161 266.656 925.865 266.581C925.57 266.507 925.297 266.864 925.217 267.213C925.142 267.649 925.447 267.896 925.742 267.97C926.037 268.045 926.311 267.688 926.39 267.339Z" fill="#C3A136"/>
<path d="M929.03 252.436C929.197 251.91 928.884 251.49 928.492 251.42C928.1 251.349 927.729 251.71 927.562 252.236C927.394 252.762 927.707 253.182 928.1 253.253C928.488 253.237 928.858 252.876 929.03 252.436Z" fill="#C3A136"/>
<path d="M933.309 237.294C933.477 236.768 933.358 236.341 932.966 236.27C932.573 236.199 932.198 236.474 932.031 237C931.859 237.44 931.983 237.954 932.375 238.024C932.67 238.099 933.142 237.82 933.309 237.294Z" fill="#C3A136"/>
<path d="M939.339 222.168C939.515 221.815 939.396 221.387 939.198 221.309C938.903 221.234 938.528 221.509 938.352 221.862C938.18 222.302 938.197 222.647 938.493 222.722C938.792 222.883 939.167 222.608 939.339 222.168Z" fill="#C3A136"/>
<path d="M947.031 207.234C947.211 206.967 947.194 206.622 946.995 206.544C946.797 206.465 946.515 206.649 946.334 206.916C946.153 207.183 946.171 207.529 946.369 207.607C946.568 207.686 946.854 207.587 947.031 207.234Z" fill="#C3A136"/>
<path d="M956.296 192.669C956.388 192.579 956.375 192.32 956.278 192.324C956.177 192.241 955.987 192.336 955.899 192.512C955.811 192.689 955.82 192.862 955.917 192.858C956.018 192.94 956.111 192.85 956.296 192.669Z" fill="#C3A136"/>
<path d="M966.756 178.661C966.751 178.575 966.751 178.575 966.751 178.575C966.747 178.489 966.751 178.575 966.756 178.661C966.659 178.665 966.659 178.665 966.659 178.665C966.663 178.752 966.756 178.661 966.756 178.661Z" fill="#C3A136"/>
<path d="M940.78 309.325C940.683 309.329 940.683 309.329 940.78 309.325C940.688 309.415 940.785 309.411 940.78 309.325C940.785 309.411 940.785 309.411 940.78 309.325Z" fill="#C3A136"/>
<path d="M938.448 296.008C938.439 295.836 938.236 295.671 938.139 295.675C938.042 295.679 937.853 295.773 937.958 295.942C937.967 296.114 938.073 296.283 938.267 296.275C938.368 296.358 938.457 296.181 938.448 296.008Z" fill="#C3A136"/>
<path d="M937.654 282.37C937.64 282.111 937.433 281.86 937.138 281.785C936.847 281.797 936.662 281.977 936.679 282.323C936.693 282.582 936.9 282.833 937.195 282.908C937.389 282.9 937.667 282.629 937.654 282.37Z" fill="#C3A136"/>
<path d="M938.393 268.323C938.468 267.888 938.16 267.554 937.864 267.48C937.574 267.491 937.199 267.766 937.124 268.202C937.049 268.637 937.358 268.971 937.649 268.959C938.045 269.116 938.416 268.755 938.393 268.323Z" fill="#C3A136"/>
<path d="M940.976 254.202C941.139 253.59 940.817 252.997 940.328 252.93C939.839 252.864 939.279 253.319 939.116 253.931C938.953 254.543 939.275 255.136 939.759 255.116C940.35 255.266 940.91 254.81 940.976 254.202Z" fill="#C3A136"/>
<path d="M944.912 239.939C945.075 239.327 944.85 238.73 944.356 238.577C943.867 238.511 943.303 238.88 943.043 239.496C942.88 240.108 943.105 240.705 943.598 240.858C944.092 241.011 944.652 240.555 944.912 239.939Z" fill="#C3A136"/>
<path d="M950.21 225.708C950.47 225.092 950.342 224.491 949.853 224.424C949.456 224.268 948.892 224.636 948.632 225.253C948.372 225.869 948.499 226.469 948.989 226.536C949.385 226.693 949.95 226.324 950.21 225.708Z" fill="#C3A136"/>
<path d="M956.68 211.602C956.857 211.249 956.839 210.904 956.641 210.825C956.442 210.747 956.063 210.935 955.984 211.284C955.807 211.637 955.825 211.983 956.023 212.061C956.12 212.057 956.5 211.869 956.68 211.602Z" fill="#C3A136"/>
<path d="M964.526 197.787C964.614 197.61 964.601 197.351 964.504 197.355C964.403 197.273 964.213 197.367 964.125 197.543C964.037 197.72 963.953 197.983 964.147 197.975C964.152 198.061 964.345 198.054 964.526 197.787Z" fill="#C3A136"/>
<path d="M973.474 184.619C973.567 184.529 973.558 184.356 973.553 184.27C973.452 184.187 973.36 184.277 973.267 184.368C973.174 184.458 973.183 184.631 973.188 184.717C973.289 184.799 973.382 184.709 973.474 184.619Z" fill="#C3A136"/>
<path d="M983.233 172.11C983.326 172.02 983.326 172.02 983.233 172.11C983.229 172.024 983.233 172.11 983.233 172.11Z" fill="#C3A136"/>
<path d="M952.021 308.697C952.017 308.61 951.915 308.528 951.818 308.532C951.721 308.536 951.629 308.626 951.73 308.708C951.735 308.795 951.836 308.877 951.933 308.873C952.03 308.869 952.123 308.779 952.021 308.697Z" fill="#C3A136"/>
<path d="M950.099 295.796C950.09 295.623 949.887 295.458 949.79 295.462C949.596 295.47 949.508 295.647 949.517 295.819C949.525 295.992 949.728 296.157 949.927 296.235C950.019 296.145 950.112 296.055 950.099 295.796Z" fill="#C3A136"/>
<path d="M949.525 282.668C949.507 282.322 949.3 282.071 949.009 282.083C948.718 282.095 948.533 282.275 948.551 282.621C948.568 282.966 948.775 283.217 949.066 283.205C949.357 283.194 949.538 282.927 949.525 282.668Z" fill="#C3A136"/>
<path d="M950.397 269.308C950.472 268.872 950.163 268.539 949.775 268.554C949.383 268.484 949.11 268.841 949.035 269.277C948.96 269.712 949.269 270.046 949.656 270.03C950.044 270.014 950.322 269.744 950.397 269.308Z" fill="#C3A136"/>
<path d="M952.821 255.885C952.979 255.187 952.658 254.594 952.071 254.531C951.485 254.468 950.925 254.924 950.767 255.622C950.608 256.321 951.027 256.91 951.613 256.972C952.098 256.953 952.658 256.497 952.821 255.885Z" fill="#C3A136"/>
<path d="M956.215 242.423C956.47 241.721 956.14 240.955 955.553 240.893C954.963 240.743 954.31 241.289 954.055 241.991C953.799 242.694 954.125 243.373 954.716 243.522C955.399 243.581 956.056 243.122 956.215 242.423Z" fill="#C3A136"/>
<path d="M960.776 229C961.032 228.298 960.803 227.615 960.309 227.462C959.815 227.309 959.154 227.682 958.898 228.384C958.643 229.087 958.872 229.77 959.366 229.923C959.859 230.076 960.521 229.703 960.776 229Z" fill="#C3A136"/>
<path d="M966.021 215.636C966.198 215.283 966.083 214.942 965.885 214.863C965.682 214.698 965.307 214.973 965.131 215.326C964.955 215.68 965.069 216.021 965.268 216.1C965.563 216.174 965.845 215.99 966.021 215.636Z" fill="#C3A136"/>
<path d="M972.651 202.735C972.831 202.469 972.818 202.21 972.62 202.131C972.422 202.053 972.232 202.147 972.051 202.414C971.871 202.681 971.884 202.94 972.082 203.018C972.28 203.097 972.567 202.998 972.651 202.735Z" fill="#C3A136"/>
<path d="M980.078 190.235C980.17 190.145 980.162 189.972 980.065 189.976C979.963 189.893 979.871 189.984 979.778 190.074C979.686 190.164 979.694 190.337 979.791 190.333C979.893 190.415 979.985 190.325 980.078 190.235Z" fill="#C3A136"/>
<path d="M966.018 320.157C966.014 320.07 965.916 320.074 966.018 320.157C965.916 320.074 965.916 320.074 965.921 320.161C965.921 320.161 965.921 320.161 966.018 320.157Z" fill="#C3A136"/>
<path d="M963.258 307.982C963.249 307.809 963.147 307.727 962.953 307.735C962.856 307.739 962.764 307.829 962.773 308.002C962.777 308.088 962.883 308.257 963.077 308.249C963.266 308.155 963.262 308.068 963.258 307.982Z" fill="#C3A136"/>
<path d="M961.745 295.497C961.732 295.238 961.529 295.073 961.238 295.085C961.044 295.093 960.859 295.274 960.872 295.533C960.885 295.792 961.088 295.956 961.379 295.945C961.67 295.933 961.855 295.752 961.745 295.497Z" fill="#C3A136"/>
<path d="M961.392 282.879C961.374 282.534 961.167 282.283 960.876 282.295C960.585 282.306 960.307 282.577 960.32 282.836C960.334 283.095 960.545 283.433 960.836 283.421C961.127 283.409 961.409 283.225 961.392 282.879Z" fill="#C3A136"/>
<path d="M962.493 270.202C962.559 269.594 962.145 269.092 961.66 269.111C961.171 269.045 960.708 269.496 960.642 270.104C960.571 270.626 960.986 271.129 961.475 271.195C961.96 271.176 962.423 270.724 962.493 270.202Z" fill="#C3A136"/>
<path d="M964.366 257.408C964.525 256.709 964.106 256.12 963.52 256.058C962.933 255.995 962.276 256.454 962.215 257.149C962.056 257.847 962.475 258.436 963.061 258.499C963.745 258.558 964.304 258.102 964.366 257.408Z" fill="#C3A136"/>
<path d="M967.314 244.742C967.473 244.044 967.147 243.365 966.556 243.216C965.965 243.066 965.309 243.526 965.057 244.315C964.899 245.013 965.225 245.692 965.816 245.841C966.499 245.9 967.156 245.441 967.314 244.742Z" fill="#C3A136"/>
<path d="M971.043 232.132C971.299 231.429 970.973 230.75 970.479 230.597C969.985 230.444 969.324 230.817 969.068 231.52C968.813 232.222 969.139 232.901 969.633 233.054C970.223 233.203 970.88 232.744 971.043 232.132Z" fill="#C3A136"/>
<path d="M975.455 219.58C975.627 219.141 975.504 218.627 975.204 218.466C974.904 218.305 974.432 218.584 974.26 219.023C974.089 219.463 974.212 219.977 974.512 220.138C974.909 220.295 975.288 220.106 975.455 219.58Z" fill="#C3A136"/>
<path d="M980.762 207.425C980.943 207.158 980.828 206.817 980.727 206.735C980.528 206.656 980.242 206.754 980.158 207.017C979.977 207.284 980.092 207.625 980.29 207.704C980.295 207.79 980.581 207.692 980.762 207.425Z" fill="#C3A136"/>
<path d="M986.77 195.674C986.858 195.498 986.845 195.239 986.748 195.243C986.646 195.16 986.457 195.254 986.369 195.431C986.281 195.608 986.294 195.867 986.391 195.863C986.492 195.945 986.682 195.851 986.77 195.674Z" fill="#C3A136"/>
<path d="M993.188 184.339C993.188 184.339 993.183 184.253 993.188 184.339C993.183 184.253 993.183 184.253 993.188 184.339C993.095 184.43 993.091 184.343 993.188 184.339C993.192 184.426 993.192 184.426 993.188 184.339Z" fill="#C3A136"/>
<path d="M976.553 319.037C976.549 318.951 976.452 318.955 976.452 318.955C976.355 318.959 976.359 319.045 976.359 319.045C976.364 319.132 976.461 319.128 976.461 319.128C976.558 319.124 976.553 319.037 976.553 319.037Z" fill="#C3A136"/>
<path d="M974.49 307.181C974.481 307.008 974.278 306.843 974.181 306.847C973.987 306.855 973.899 307.032 973.908 307.204C973.917 307.377 974.119 307.542 974.212 307.452C974.406 307.444 974.494 307.267 974.49 307.181Z" fill="#C3A136"/>
<path d="M973.387 295.112C973.374 294.853 973.167 294.602 972.876 294.614C972.585 294.626 972.404 294.892 972.417 295.151C972.43 295.411 972.638 295.662 972.929 295.65C973.219 295.638 973.4 295.371 973.387 295.112Z" fill="#C3A136"/>
<path d="M973.351 283C973.329 282.569 973.02 282.235 972.632 282.251C972.245 282.267 971.87 282.541 971.892 282.973C971.914 283.405 972.223 283.738 972.61 283.723C973.003 283.793 973.276 283.436 973.351 283Z" fill="#C3A136"/>
<path d="M974.192 270.94C974.259 270.331 973.849 269.915 973.359 269.849C972.773 269.786 972.31 270.237 972.341 270.842C972.275 271.45 972.685 271.866 973.271 271.929C973.659 271.913 974.122 271.462 974.192 270.94Z" fill="#C3A136"/>
<path d="M976.004 258.84C976.158 258.055 975.638 257.384 974.954 257.325C974.271 257.266 973.522 257.815 973.465 258.596C973.31 259.381 973.83 260.052 974.514 260.111C975.197 260.17 975.946 259.621 976.004 258.84Z" fill="#C3A136"/>
<path d="M978.309 246.893C978.467 246.194 978.044 245.519 977.453 245.37C976.766 245.225 976.109 245.684 975.955 246.469C975.796 247.167 976.219 247.843 976.81 247.992C977.493 248.05 978.053 247.595 978.309 246.893Z" fill="#C3A136"/>
<path d="M981.297 235.004C981.455 234.306 981.226 233.623 980.534 233.391C979.943 233.242 979.282 233.615 979.128 234.4C978.872 235.103 979.203 235.868 979.794 236.017C980.481 236.162 981.138 235.703 981.297 235.004Z" fill="#C3A136"/>
<path d="M984.783 223.356C984.951 222.83 984.823 222.229 984.426 222.072C984.029 221.915 983.461 222.198 983.293 222.724C983.126 223.25 983.253 223.85 983.747 224.003C984.047 224.164 984.519 223.886 984.783 223.356Z" fill="#C3A136"/>
<path d="M988.666 211.864C988.75 211.601 988.732 211.256 988.534 211.177C988.331 211.012 988.049 211.197 987.965 211.46C987.881 211.723 987.899 212.068 988.097 212.146C988.296 212.225 988.582 212.127 988.666 211.864Z" fill="#C3A136"/>
<path d="M993.25 200.776C993.338 200.6 993.329 200.427 993.228 200.345C993.127 200.262 993.034 200.352 992.946 200.529C992.858 200.706 992.867 200.878 992.968 200.961C993.069 201.043 993.162 200.953 993.25 200.776Z" fill="#C3A136"/>
<path d="M998.244 190.105C998.24 190.018 998.235 189.932 998.235 189.932C998.235 189.932 998.138 189.936 998.143 190.022C998.147 190.109 998.147 190.109 998.151 190.195C998.151 190.195 998.151 190.195 998.244 190.105Z" fill="#C3A136"/>
<path d="M987.278 317.824C987.274 317.738 987.172 317.655 987.075 317.659C986.978 317.663 986.983 317.75 986.987 317.836C986.992 317.922 987.093 318.005 987.19 318.001C987.19 318.001 987.283 317.91 987.278 317.824Z" fill="#C3A136"/>
<path d="M985.717 306.293C985.708 306.121 985.506 305.956 985.409 305.96C985.215 305.968 985.126 306.144 985.135 306.317C985.144 306.49 985.347 306.654 985.444 306.651C985.536 306.56 985.726 306.466 985.717 306.293Z" fill="#C3A136"/>
<path d="M985.126 294.723C985.108 294.378 984.8 294.044 984.412 294.06C984.024 294.076 983.746 294.346 983.768 294.778C983.786 295.124 984.09 295.371 984.478 295.355C984.866 295.339 985.143 295.069 985.126 294.723Z" fill="#C3A136"/>
<path d="M985.02 283.133C984.997 282.702 984.689 282.368 984.301 282.384C983.913 282.4 983.538 282.674 983.56 283.106C983.583 283.538 983.891 283.871 984.279 283.856C984.667 283.84 985.042 283.565 985.02 283.133Z" fill="#C3A136"/>
<path d="M986.081 271.583C986.143 270.888 985.627 270.303 984.944 270.245C984.261 270.186 983.608 270.731 983.644 271.422C983.582 272.117 984.098 272.701 984.781 272.76C985.464 272.819 986.02 272.278 986.081 271.583Z" fill="#C3A136"/>
<path d="M987.54 260.189C987.694 259.404 987.073 258.651 986.288 258.51C985.503 258.368 984.758 259.004 984.604 259.789C984.454 260.66 985.071 261.328 985.856 261.469C986.641 261.61 987.386 260.974 987.54 260.189Z" fill="#C3A136"/>
<path d="M989.298 248.957C989.448 248.085 988.923 247.328 988.139 247.187C987.354 247.045 986.605 247.595 986.358 248.47C986.208 249.341 986.737 250.185 987.522 250.326C988.399 250.377 989.148 249.828 989.298 248.957Z" fill="#C3A136"/>
<path d="M991.449 237.794C991.603 237.01 991.175 236.248 990.488 236.103C989.8 235.958 989.139 236.331 988.888 237.12C988.733 237.904 989.161 238.666 989.849 238.811C990.541 239.043 991.295 238.579 991.449 237.794Z" fill="#C3A136"/>
<path d="M993.904 226.88C994.067 226.268 993.842 225.671 993.247 225.436C992.753 225.282 992.184 225.565 992.021 226.177C991.858 226.79 992.083 227.386 992.678 227.622C993.176 227.861 993.741 227.492 993.904 226.88Z" fill="#C3A136"/>
<path d="M996.755 216.122C996.927 215.682 996.707 215.172 996.407 215.011C996.107 214.85 995.728 215.039 995.556 215.478C995.384 215.918 995.605 216.428 995.905 216.589C996.209 216.836 996.583 216.562 996.755 216.122Z" fill="#C3A136"/>
<path d="M999.818 205.702C999.907 205.525 999.796 205.27 999.695 205.187C999.594 205.105 999.404 205.199 999.316 205.376C999.228 205.552 999.338 205.808 999.439 205.89C999.536 205.886 999.73 205.878 999.818 205.702Z" fill="#C3A136"/>
<path d="M1003.29 195.611C1003.28 195.525 1003.27 195.352 1003.27 195.266C1003.17 195.183 1003.17 195.27 1003.08 195.36C1003.08 195.446 1003.09 195.619 1003.1 195.705C1003.1 195.792 1003.19 195.701 1003.29 195.611Z" fill="#C3A136"/>
<path d="M999.544 327.71C999.544 327.71 999.444 327.714 999.544 327.71C999.444 327.714 999.548 327.799 999.544 327.71C999.544 327.71 999.548 327.799 999.544 327.71Z" fill="#C3A136"/>
<path d="M997.902 316.529C997.897 316.442 997.796 316.36 997.699 316.364C997.602 316.368 997.509 316.458 997.518 316.631C997.523 316.717 997.624 316.799 997.721 316.796C997.818 316.792 997.906 316.615 997.902 316.529Z" fill="#C3A136"/>
<path d="M996.94 305.32C996.932 305.147 996.729 304.982 996.535 304.99C996.341 304.998 996.156 305.178 996.169 305.437C996.178 305.61 996.381 305.775 996.574 305.767C996.768 305.759 996.949 305.492 996.94 305.32Z" fill="#C3A136"/>
<path d="M996.759 294.165C996.737 293.734 996.433 293.487 995.948 293.506C995.56 293.522 995.19 293.883 995.207 294.228C995.229 294.66 995.635 294.99 996.023 294.974C996.411 294.958 996.781 294.597 996.759 294.165Z" fill="#C3A136"/>
<path d="M996.97 283.082C996.944 282.564 996.529 282.062 995.947 282.085C995.365 282.109 994.903 282.56 994.832 283.082C994.863 283.687 995.273 284.103 995.855 284.079C996.538 284.138 997.001 283.686 996.97 283.082Z" fill="#C3A136"/>
<path d="M997.776 272.234C997.838 271.539 997.221 270.872 996.44 270.817C995.66 270.762 995.008 271.308 994.951 272.089C994.889 272.784 995.506 273.451 996.286 273.506C997.062 273.474 997.715 272.929 997.776 272.234Z" fill="#C3A136"/>
<path d="M998.878 261.46C998.931 260.593 998.309 259.84 997.432 259.789C996.55 259.651 995.805 260.287 995.655 261.158C995.603 262.026 996.224 262.779 997.106 262.917C997.979 262.881 998.825 262.328 998.878 261.46Z" fill="#C3A136"/>
<path d="M1000.18 250.852C1000.33 249.894 999.605 249.058 998.723 248.921C997.841 248.784 996.995 249.337 996.849 250.295C996.704 251.252 997.33 252.092 998.309 252.226C999.19 252.363 1000.04 251.81 1000.18 250.852Z" fill="#C3A136"/>
<path d="M1001.5 240.416C1001.65 239.631 1001.12 238.787 1000.33 238.56C999.542 238.332 998.793 238.881 998.639 239.666C998.489 240.538 999.014 241.295 999.803 241.523C1000.59 241.75 1001.35 241.287 1001.5 240.416Z" fill="#C3A136"/>
<path d="M1003.02 230.231C1003.17 229.532 1002.75 228.857 1002.16 228.622C1001.56 228.387 1001 228.755 1000.84 229.454C1000.68 230.153 1001.11 230.914 1001.7 231.063C1002.29 231.299 1002.86 230.93 1003.02 230.231Z" fill="#C3A136"/>
<path d="M1004.54 220.219C1004.62 219.783 1004.39 219.187 1003.99 218.944C1003.6 218.787 1003.22 218.975 1003.15 219.497C1003.08 220.019 1003.3 220.529 1003.69 220.686C1004.1 220.929 1004.47 220.655 1004.54 220.219Z" fill="#C3A136"/>
<path d="M1006.37 210.368C1006.46 210.105 1006.34 209.763 1006.14 209.685C1005.94 209.52 1005.76 209.701 1005.67 209.964C1005.59 210.227 1005.7 210.568 1005.9 210.646C1006.1 210.725 1006.29 210.631 1006.37 210.368Z" fill="#C3A136"/>
<path d="M1008.32 200.858C1008.31 200.772 1008.3 200.599 1008.2 200.517C1008.1 200.434 1008.11 200.521 1008.01 200.611C1008.02 200.697 1008.03 200.87 1008.03 200.956C1008.23 201.035 1008.22 200.948 1008.32 200.858Z" fill="#C3A136"/>
<path d="M1009.57 326.18C1009.57 326.093 1009.47 326.097 1009.57 326.18C1009.47 326.097 1009.47 326.184 1009.47 326.184C1009.47 326.184 1009.48 326.271 1009.57 326.18C1009.57 326.18 1009.47 326.184 1009.57 326.18Z" fill="#C3A136"/>
<path d="M1008.62 315.229C1008.62 315.143 1008.52 315.06 1008.42 315.064C1008.32 315.068 1008.23 315.158 1008.23 315.245C1008.24 315.331 1008.34 315.414 1008.44 315.41C1008.53 315.406 1008.63 315.315 1008.62 315.229Z" fill="#C3A136"/>
<path d="M1008.16 304.346C1008.15 304.173 1007.95 304.008 1007.76 304.016C1007.56 304.024 1007.38 304.205 1007.39 304.377C1007.4 304.55 1007.6 304.715 1007.79 304.707C1007.99 304.699 1008.17 304.519 1008.16 304.346Z" fill="#C3A136"/>
<path d="M1008.3 293.612C1008.27 293.18 1007.97 292.933 1007.48 292.952C1007 292.972 1006.73 293.329 1006.65 293.765C1006.67 294.196 1006.98 294.444 1007.46 294.424C1007.94 294.318 1008.32 294.043 1008.3 293.612Z" fill="#C3A136"/>
<path d="M1008.63 283.042C1008.6 282.524 1008.19 282.108 1007.61 282.132C1007.03 282.155 1006.57 282.607 1006.5 283.129C1006.52 283.647 1006.93 284.063 1007.51 284.039C1008.1 284.016 1008.56 283.564 1008.63 283.042Z" fill="#C3A136"/>
<path d="M1009.27 272.72C1009.33 272.025 1008.72 271.445 1007.94 271.39C1007.16 271.335 1006.5 271.88 1006.45 272.661C1006.39 273.356 1007 274.023 1007.88 273.988C1008.55 273.96 1009.21 273.415 1009.27 272.72Z" fill="#C3A136"/>
<path d="M1010.01 262.567C1010.07 261.786 1009.35 261.036 1008.47 260.899C1007.59 260.762 1006.84 261.397 1006.79 262.178C1006.73 263.046 1007.45 263.709 1008.33 263.846C1009.21 263.984 1009.96 263.348 1010.01 262.567Z" fill="#C3A136"/>
<path d="M1010.77 252.672C1010.82 251.805 1010.1 250.969 1009.22 250.832C1008.34 250.694 1007.49 251.248 1007.44 252.115C1007.39 252.983 1008.01 253.823 1008.99 253.956C1009.87 254.093 1010.62 253.544 1010.77 252.672Z" fill="#C3A136"/>
<path d="M1011.25 242.963C1011.3 242.182 1010.68 241.428 1009.99 241.197C1009.2 240.969 1008.54 241.428 1008.49 242.209C1008.43 242.99 1008.96 243.834 1009.74 243.975C1010.53 244.203 1011.19 243.744 1011.25 242.963Z" fill="#C3A136"/>
<path d="M1011.83 233.422C1011.89 232.727 1011.47 232.052 1010.77 231.82C1010.18 231.585 1009.61 231.954 1009.55 232.649C1009.49 233.343 1009.91 234.018 1010.61 234.25C1011.2 234.399 1011.76 234.03 1011.83 233.422Z" fill="#C3A136"/>
<path d="M1012.32 223.971C1012.39 223.535 1012.07 222.942 1011.67 222.786C1011.27 222.542 1010.9 222.817 1010.92 223.249C1010.85 223.771 1011.17 224.277 1011.56 224.434C1011.87 224.768 1012.25 224.493 1012.32 223.971Z" fill="#C3A136"/>
<path d="M1012.82 214.779C1012.81 214.52 1012.69 214.179 1012.49 214.014C1012.29 213.849 1012.1 214.029 1012.11 214.289C1012.13 214.548 1012.24 214.889 1012.44 215.054C1012.55 215.223 1012.73 215.042 1012.82 214.779Z" fill="#C3A136"/>
<path d="M1013.43 205.842C1013.42 205.67 1013.41 205.497 1013.31 205.415C1013.21 205.332 1013.12 205.422 1013.13 205.595C1013.14 205.768 1013.14 205.94 1013.25 206.023C1013.35 206.105 1013.34 206.019 1013.43 205.842Z" fill="#C3A136"/>
<path d="M1019.59 324.562C1019.59 324.475 1019.59 324.475 1019.59 324.562C1019.49 324.479 1019.4 324.57 1019.4 324.57C1019.41 324.656 1019.41 324.656 1019.5 324.652C1019.6 324.648 1019.59 324.562 1019.59 324.562Z" fill="#C3A136"/>
<path d="M1019.44 313.839C1019.43 313.667 1019.33 313.584 1019.13 313.592C1018.94 313.6 1018.85 313.777 1018.86 313.949C1018.87 314.122 1018.97 314.204 1019.16 314.197C1019.35 314.102 1019.44 313.926 1019.44 313.839Z" fill="#C3A136"/>
<path d="M1019.58 303.278C1019.56 303.019 1019.36 302.768 1018.97 302.783C1018.68 302.795 1018.4 303.066 1018.42 303.411C1018.43 303.67 1018.64 303.921 1019.02 303.819C1019.31 303.808 1019.59 303.537 1019.58 303.278Z" fill="#C3A136"/>
<path d="M1019.92 292.967C1019.9 292.536 1019.5 292.206 1019.01 292.226C1018.53 292.245 1018.06 292.697 1018.09 293.128C1018.11 293.56 1018.52 293.976 1019 293.87C1019.48 293.764 1019.95 293.399 1019.92 292.967Z" fill="#C3A136"/>
<path d="M1020.48 282.908C1020.45 282.304 1019.94 281.806 1019.16 281.751C1018.38 281.782 1017.82 282.237 1017.86 282.928C1017.89 283.619 1018.4 284.117 1019.18 284.086C1019.86 284.058 1020.41 283.517 1020.48 282.908Z" fill="#C3A136"/>
<path d="M1020.95 273.112C1020.91 272.335 1020.2 271.672 1019.32 271.621C1018.34 271.574 1017.6 272.21 1017.64 272.987C1017.58 273.768 1018.39 274.427 1019.27 274.478C1020.15 274.529 1020.89 273.893 1020.95 273.112Z" fill="#C3A136"/>
<path d="M1021.34 263.579C1021.29 262.716 1020.47 261.883 1019.49 261.75C1018.42 261.621 1017.58 262.26 1017.63 263.21C1017.57 264.078 1018.49 264.906 1019.47 265.039C1020.45 265.172 1021.28 264.446 1021.34 263.579Z" fill="#C3A136"/>
<path d="M1021.25 254.324C1021.21 253.461 1020.49 252.625 1019.51 252.492C1018.53 252.358 1017.78 252.908 1017.73 253.775C1017.67 254.643 1018.49 255.475 1019.47 255.608C1020.45 255.741 1021.3 255.188 1021.25 254.324Z" fill="#C3A136"/>
<path d="M1021.08 245.246C1021.04 244.469 1020.42 243.63 1019.53 243.406C1018.64 243.182 1017.99 243.641 1018.03 244.505C1018.07 245.282 1018.7 246.122 1019.58 246.345C1020.37 246.573 1021.13 246.11 1021.08 245.246Z" fill="#C3A136"/>
<path d="M1020.63 236.353C1020.59 235.662 1020.07 234.991 1019.48 234.756C1018.88 234.52 1018.32 234.889 1018.35 235.58C1018.39 236.271 1018.91 236.942 1019.5 237.177C1020.1 237.413 1020.66 237.044 1020.63 236.353Z" fill="#C3A136"/>
<path d="M1019.99 227.64C1019.96 227.122 1019.55 226.62 1019.14 226.376C1018.74 226.133 1018.37 226.408 1018.4 226.926C1018.42 227.444 1018.74 228.037 1019.24 228.19C1019.64 228.433 1020.01 228.158 1019.99 227.64Z" fill="#C3A136"/>
<path d="M1019.26 219.104C1019.24 218.759 1019.03 218.335 1018.73 218.174C1018.43 218.013 1018.24 218.107 1018.25 218.452C1018.27 218.798 1018.49 219.222 1018.79 219.383C1019.09 219.63 1019.28 219.449 1019.26 219.104Z" fill="#C3A136"/>
<path d="M1018.54 210.654C1018.53 210.481 1018.42 210.226 1018.31 210.057C1018.21 209.975 1018.11 209.979 1018.13 210.238C1018.13 210.411 1018.24 210.666 1018.35 210.834C1018.45 210.917 1018.55 210.913 1018.54 210.654Z" fill="#C3A136"/>
<path d="M1017.72 202.381C1017.72 202.294 1017.72 202.208 1017.61 202.125C1017.61 202.039 1017.52 202.129 1017.52 202.216C1017.53 202.302 1017.63 202.384 1017.72 202.381C1017.73 202.467 1017.63 202.471 1017.72 202.381Z" fill="#C3A136"/>
<path d="M1029.81 322.85C1029.8 322.764 1029.7 322.681 1029.71 322.768C1029.61 322.772 1029.52 322.862 1029.52 322.948C1029.53 323.035 1029.63 323.117 1029.63 323.117C1029.72 322.94 1029.81 322.85 1029.81 322.85Z" fill="#C3A136"/>
<path d="M1030.34 312.273C1030.33 312.1 1030.23 312.018 1030.03 312.026C1029.84 312.034 1029.75 312.21 1029.66 312.387C1029.67 312.559 1029.77 312.642 1029.97 312.634C1030.16 312.626 1030.35 312.532 1030.34 312.273Z" fill="#C3A136"/>
<path d="M1030.98 302.124C1030.97 301.778 1030.66 301.531 1030.27 301.547C1029.89 301.562 1029.61 301.92 1029.53 302.269C1029.55 302.614 1029.86 302.862 1030.24 302.846C1030.63 302.744 1031 302.469 1030.98 302.124Z" fill="#C3A136"/>
<path d="M1031.55 292.237C1031.53 291.805 1031.12 291.389 1030.53 291.413C1029.95 291.437 1029.49 291.888 1029.51 292.32C1029.54 292.838 1029.94 293.167 1030.53 293.144C1031.11 293.12 1031.57 292.669 1031.55 292.237Z" fill="#C3A136"/>
<path d="M1032.23 282.692C1032.19 282.001 1031.58 281.42 1030.71 281.456C1029.83 281.491 1029.18 282.037 1029.12 282.731C1029.15 283.422 1029.77 284.003 1030.64 283.968C1031.51 283.932 1032.26 283.383 1032.23 282.692Z" fill="#C3A136"/>
<path d="M1032.53 273.422C1032.49 272.558 1031.68 271.899 1030.6 271.856C1029.53 271.813 1028.69 272.453 1028.74 273.316C1028.78 274.179 1029.59 274.839 1030.66 274.882C1031.73 274.925 1032.57 274.285 1032.53 273.422Z" fill="#C3A136"/>
<path d="M1032.46 264.513C1032.42 263.563 1031.4 262.739 1030.33 262.609C1029.15 262.484 1028.32 263.21 1028.27 264.163C1028.32 265.113 1029.23 265.941 1030.41 266.067C1031.58 266.192 1032.51 265.462 1032.46 264.513Z" fill="#C3A136"/>
<path d="M1031.93 255.882C1031.88 254.932 1030.86 254.022 1029.68 253.81C1028.51 253.684 1027.67 254.324 1027.72 255.274C1027.76 256.224 1028.79 257.221 1029.96 257.346C1031.14 257.558 1032.08 256.914 1031.93 255.882Z" fill="#C3A136"/>
<path d="M1030.92 247.53C1030.77 246.671 1029.95 245.839 1028.97 245.619C1027.99 245.399 1027.33 245.859 1027.38 246.808C1027.42 247.672 1028.35 248.586 1029.32 248.72C1030.31 248.939 1030.96 248.394 1030.92 247.53Z" fill="#C3A136"/>
<path d="M1029.43 239.285C1029.29 238.598 1028.67 237.844 1027.88 237.617C1027.19 237.385 1026.63 237.754 1026.76 238.441C1026.79 239.132 1027.51 239.881 1028.3 240.109C1028.99 240.34 1029.56 239.971 1029.43 239.285Z" fill="#C3A136"/>
<path d="M1027.65 231.137C1027.53 230.623 1027.11 230.034 1026.61 229.881C1026.11 229.641 1025.84 229.912 1025.96 230.426C1025.99 230.944 1026.5 231.529 1027 231.769C1027.39 231.839 1027.68 231.655 1027.65 231.137Z" fill="#C3A136"/>
<path d="M1025.69 223.17C1025.57 222.828 1025.36 222.404 1025.06 222.243C1024.76 222.083 1024.57 222.177 1024.69 222.604C1024.8 222.946 1025.02 223.37 1025.32 223.531C1025.61 223.605 1025.8 223.511 1025.69 223.17Z" fill="#C3A136"/>
<path d="M1023.63 215.206C1023.62 215.034 1023.41 214.782 1023.31 214.614C1023.2 214.531 1023.11 214.535 1023.12 214.794C1023.13 214.967 1023.34 215.218 1023.44 215.387C1023.54 215.469 1023.64 215.379 1023.63 215.206Z" fill="#C3A136"/>
<path d="M1021.38 207.424C1021.38 207.337 1021.28 207.255 1021.27 207.169C1021.27 207.082 1021.18 207.172 1021.28 207.255L1021.38 207.424C1021.48 207.506 1021.39 207.51 1021.38 207.424Z" fill="#C3A136"/>
<path d="M1040.02 321.052C1040.01 320.966 1040.01 320.966 1039.92 320.97C1039.82 320.974 1039.73 321.064 1039.73 321.15C1039.74 321.237 1039.74 321.323 1039.84 321.319C1039.93 321.142 1040.02 321.139 1040.02 321.052Z" fill="#C3A136"/>
<path d="M1041.24 310.793C1041.23 310.62 1041.13 310.452 1040.94 310.546C1040.74 310.554 1040.56 310.734 1040.57 310.907C1040.58 311.079 1040.68 311.248 1040.87 311.154C1041.07 311.146 1041.25 310.966 1041.24 310.793Z" fill="#C3A136"/>
<path d="M1042.29 300.887C1042.27 300.541 1042.07 300.377 1041.68 300.392C1041.3 300.408 1041.02 300.679 1040.94 301.028C1040.96 301.373 1041.16 301.538 1041.55 301.523C1041.93 301.507 1042.31 301.232 1042.29 300.887Z" fill="#C3A136"/>
<path d="M1043.27 291.416C1043.24 290.898 1042.83 290.569 1042.15 290.596C1041.48 290.624 1041.01 291.075 1041.04 291.593C1041.07 292.111 1041.47 292.441 1042.15 292.413C1042.73 292.39 1043.19 291.938 1043.27 291.416Z" fill="#C3A136"/>
<path d="M1043.87 282.393C1043.84 281.703 1043.13 281.212 1042.26 281.247C1041.39 281.283 1040.73 281.828 1040.67 282.523C1040.71 283.214 1041.41 283.704 1042.29 283.669C1043.16 283.634 1043.81 283.088 1043.87 282.393Z" fill="#C3A136"/>
<path d="M1044.01 273.735C1043.97 272.872 1043.06 272.217 1041.99 272.173C1040.92 272.13 1040.08 272.77 1040.12 273.633C1040.17 274.497 1041.07 275.152 1042.14 275.195C1043.11 275.156 1044.05 274.512 1044.01 273.735Z" fill="#C3A136"/>
<path d="M1043.49 265.364C1043.35 264.504 1042.33 263.594 1041.06 263.472C1039.79 263.351 1038.95 264.077 1039 265.027C1039.05 265.976 1040.16 266.797 1041.43 266.918C1042.7 267.04 1043.63 266.31 1043.49 265.364Z" fill="#C3A136"/>
<path d="M1042.4 257.448C1042.26 256.502 1041.05 255.599 1039.87 255.387C1038.69 255.175 1037.75 255.819 1037.9 256.851C1038.05 257.797 1039.17 258.79 1040.44 258.912C1041.71 259.033 1042.65 258.39 1042.4 257.448Z" fill="#C3A136"/>
<path d="M1040.55 249.649C1040.31 248.794 1039.29 247.883 1038.21 247.667C1037.13 247.365 1036.38 247.915 1036.62 248.857C1036.76 249.716 1037.88 250.709 1038.96 250.925C1040.13 251.05 1040.79 250.505 1040.55 249.649Z" fill="#C3A136"/>
<path d="M1038.12 242.047C1037.89 241.364 1037.07 240.532 1036.18 240.222C1035.39 239.908 1034.83 240.364 1035.05 241.047C1035.29 241.816 1036.11 242.648 1036.99 242.871C1037.88 243.181 1038.35 242.73 1038.12 242.047Z" fill="#C3A136"/>
<path d="M1035.2 234.465C1034.98 233.955 1034.47 233.37 1033.97 233.13C1033.47 232.891 1033.19 233.162 1033.32 233.676C1033.44 234.19 1034.05 234.771 1034.55 235.01C1035.15 235.246 1035.33 234.979 1035.2 234.465Z" fill="#C3A136"/>
<path d="M1032.11 227.063C1031.89 226.639 1031.58 226.219 1031.17 225.976C1030.88 225.815 1030.69 225.909 1030.8 226.337C1030.92 226.765 1031.33 227.181 1031.73 227.424C1032.13 227.581 1032.32 227.4 1032.11 227.063Z" fill="#C3A136"/>
<path d="M1028.71 219.586C1028.6 219.331 1028.39 219.08 1028.19 218.915C1027.99 218.75 1027.99 218.837 1028.1 219.092C1028.21 219.347 1028.42 219.598 1028.62 219.763C1028.83 219.928 1028.82 219.841 1028.71 219.586Z" fill="#C3A136"/>
<path d="M1025.22 212.2C1025.22 212.114 1025.12 212.031 1025.02 211.949C1025.01 211.863 1025.02 211.949 1025.02 212.035C1025.12 212.118 1025.13 212.204 1025.22 212.2C1025.23 212.286 1025.23 212.286 1025.22 212.2Z" fill="#C3A136"/>
<path d="M1050.42 319.16C1050.41 319.074 1050.41 318.987 1050.21 318.995C1050.12 318.999 1050.03 319.176 1049.94 319.266C1049.94 319.352 1049.94 319.439 1050.14 319.431C1050.33 319.337 1050.42 319.246 1050.42 319.16Z" fill="#C3A136"/>
<path d="M1052.33 309.132C1052.32 308.96 1052.22 308.791 1052.03 308.799C1051.83 308.807 1051.65 308.987 1051.56 309.25C1051.57 309.423 1051.68 309.592 1051.87 309.584C1052.06 309.489 1052.25 309.309 1052.33 309.132Z" fill="#C3A136"/>
<path d="M1053.79 299.642C1053.77 299.297 1053.47 299.05 1053.09 299.152C1052.7 299.167 1052.33 299.528 1052.25 299.791C1052.26 300.137 1052.56 300.298 1052.95 300.282C1053.44 300.262 1053.81 299.988 1053.79 299.642Z" fill="#C3A136"/>
<path d="M1055.08 290.592C1055.15 289.983 1054.55 289.662 1053.77 289.693C1052.99 289.724 1052.44 290.266 1052.37 290.874C1052.4 291.479 1052.91 291.805 1053.68 291.773C1054.45 291.655 1055.11 291.11 1055.08 290.592Z" fill="#C3A136"/>
<path d="M1055.52 282.008C1055.48 281.317 1054.68 280.831 1053.7 280.784C1052.73 280.823 1051.98 281.373 1052.02 282.063C1052.05 282.754 1052.86 283.327 1053.73 283.292C1054.8 283.248 1055.55 282.699 1055.52 282.008Z" fill="#C3A136"/>
<path d="M1055.39 273.88C1055.25 273.021 1054.25 272.369 1053.08 272.33C1051.91 272.291 1051.07 272.93 1051.11 273.794C1051.16 274.657 1052.26 275.305 1053.43 275.344C1054.59 275.383 1055.53 274.74 1055.39 273.88Z" fill="#C3A136"/>
<path d="M1054.61 266.125C1054.36 265.183 1053.16 264.367 1051.79 264.249C1050.42 264.131 1049.59 264.857 1049.73 265.803C1049.88 266.749 1051.09 267.652 1052.45 267.683C1053.82 267.801 1054.75 267.071 1054.61 266.125Z" fill="#C3A136"/>
<path d="M1052.68 258.762C1052.43 257.82 1051.22 257.004 1049.95 256.796C1048.68 256.674 1047.93 257.224 1048.17 258.166C1048.42 259.108 1049.62 259.924 1050.9 260.132C1052.07 260.257 1052.91 259.618 1052.68 258.762Z" fill="#C3A136"/>
<path d="M1049.98 251.603C1049.64 250.752 1048.53 249.932 1047.45 249.716C1046.37 249.5 1045.71 249.959 1046.05 250.811C1046.38 251.662 1047.5 252.483 1048.58 252.699C1049.75 252.91 1050.41 252.451 1049.98 251.603Z" fill="#C3A136"/>
<path d="M1046.6 244.559C1046.28 243.88 1045.37 243.138 1044.58 242.91C1043.79 242.683 1043.32 243.048 1043.65 243.727C1043.97 244.406 1044.89 245.147 1045.67 245.375C1046.56 245.599 1046.93 245.238 1046.6 244.559Z" fill="#C3A136"/>
<path d="M1042.75 237.62C1042.43 237.114 1041.82 236.533 1041.23 236.297C1040.63 236.062 1040.45 236.329 1040.67 236.839C1040.89 237.349 1041.61 238.012 1042.2 238.161C1042.79 238.397 1042.97 238.13 1042.75 237.62Z" fill="#C3A136"/>
<path d="M1038.41 230.701C1038.2 230.363 1037.69 229.865 1037.39 229.704C1037.09 229.543 1037 229.633 1037.21 230.057C1037.43 230.395 1037.84 230.897 1038.24 231.054C1038.54 231.215 1038.62 231.038 1038.41 230.701Z" fill="#C3A136"/>
<path d="M1033.88 223.79C1033.78 223.621 1033.47 223.287 1033.36 223.118C1033.26 222.95 1033.16 223.04 1033.37 223.291C1033.48 223.546 1033.78 223.793 1033.89 223.962C1033.99 224.045 1033.99 223.958 1033.88 223.79Z" fill="#C3A136"/>
<path d="M1029.15 216.8C1029.05 216.631 1028.94 216.462 1028.84 216.38C1028.74 216.297 1028.74 216.297 1028.84 216.466C1028.95 216.635 1029.05 216.804 1029.15 216.8C1029.16 216.972 1029.26 216.968 1029.15 216.8Z" fill="#C3A136"/>
<path d="M1024.23 209.818C1024.22 209.731 1024.22 209.731 1024.13 209.735C1024.12 209.649 1024.12 209.649 1024.23 209.818C1024.23 209.818 1024.13 209.735 1024.23 209.818Z" fill="#C3A136"/>
<path d="M1054.5 338.289C1054.5 338.289 1054.5 338.202 1054.5 338.289C1054.41 338.293 1054.41 338.293 1054.41 338.293C1054.31 338.384 1054.41 338.381 1054.5 338.289C1054.41 338.293 1054.41 338.381 1054.5 338.289Z" fill="#C3A136"/>
<path d="M1057.84 327.426C1057.73 327.342 1057.74 327.43 1057.74 327.43C1057.74 327.517 1057.74 327.517 1057.84 327.426C1057.84 327.513 1057.84 327.513 1057.84 327.426Z" fill="#C3A136"/>
<path d="M1061 317.174C1061 317.001 1060.99 316.915 1060.8 317.009C1060.71 317.013 1060.52 317.193 1060.52 317.28C1060.53 317.366 1060.53 317.452 1060.73 317.445C1060.82 317.441 1060.91 317.264 1061 317.174Z" fill="#C3A136"/>
<path d="M1063.52 307.468C1063.61 307.205 1063.4 307.04 1063.01 307.056C1062.73 307.154 1062.45 307.338 1062.36 307.601C1062.28 307.864 1062.48 308.029 1062.87 308.013C1063.25 307.911 1063.53 307.727 1063.52 307.468Z" fill="#C3A136"/>
<path d="M1065.58 298.213C1065.65 297.778 1065.25 297.534 1064.76 297.554C1064.19 297.664 1063.72 298.029 1063.74 298.46C1063.67 298.896 1064.07 299.139 1064.65 299.116C1065.03 299.014 1065.5 298.649 1065.58 298.213Z" fill="#C3A136"/>
<path d="M1066.79 289.598C1066.86 289.076 1066.16 288.672 1065.38 288.704C1064.61 288.735 1063.95 289.28 1063.89 289.889C1063.91 290.407 1064.52 290.815 1065.29 290.784C1066.16 290.662 1066.82 290.203 1066.79 289.598Z" fill="#C3A136"/>
<path d="M1067.44 281.525C1067.4 280.748 1066.4 280.183 1065.34 280.226C1064.17 280.273 1063.33 280.913 1063.37 281.69C1063.41 282.467 1064.31 283.036 1065.48 282.989C1066.64 282.942 1067.48 282.302 1067.44 281.525Z" fill="#C3A136"/>
<path d="M1067.06 274.013C1066.92 273.154 1065.72 272.424 1064.35 272.392C1062.99 272.361 1062.06 273.091 1062.2 273.951C1062.34 274.896 1063.55 275.626 1064.9 275.571C1066.17 275.607 1067.2 274.873 1067.06 274.013Z" fill="#C3A136"/>
<path d="M1065.53 266.807C1065.28 265.865 1063.89 265.143 1062.52 265.026C1061.15 264.908 1060.21 265.552 1060.46 266.58C1060.7 267.522 1062.01 268.334 1063.47 268.448C1064.83 268.393 1065.77 267.749 1065.53 266.807Z" fill="#C3A136"/>
<path d="M1062.94 259.99C1062.61 259.138 1061.2 258.33 1059.83 258.126C1058.56 257.918 1057.82 258.554 1058.15 259.492C1058.49 260.344 1059.8 261.242 1061.17 261.36C1062.53 261.478 1063.37 260.838 1062.94 259.99Z" fill="#C3A136"/>
<path d="M1059.5 253.467C1059.07 252.706 1057.76 251.807 1056.58 251.595C1055.5 251.38 1054.85 251.839 1055.28 252.6C1055.71 253.448 1056.92 254.351 1058.19 254.472C1059.37 254.77 1059.93 254.229 1059.5 253.467Z" fill="#C3A136"/>
<path d="M1055.18 246.98C1054.76 246.305 1053.65 245.571 1052.77 245.347C1051.88 245.124 1051.51 245.398 1051.93 246.073C1052.35 246.748 1053.46 247.482 1054.35 247.792C1055.24 248.016 1055.61 247.655 1055.18 246.98Z" fill="#C3A136"/>
<path d="M1050.19 240.606C1049.78 240.104 1048.97 239.445 1048.37 239.209C1047.78 238.974 1047.59 239.154 1048.01 239.657C1048.32 240.163 1049.23 240.818 1049.83 241.054C1050.43 241.376 1050.61 241.109 1050.19 240.606Z" fill="#C3A136"/>
<path d="M1044.81 234.248C1044.5 233.829 1043.99 233.416 1043.59 233.173C1043.2 233.016 1043.2 233.102 1043.51 233.522C1043.82 233.856 1044.33 234.354 1044.73 234.511C1045.03 234.759 1045.12 234.582 1044.81 234.248Z" fill="#C3A136"/>
<path d="M1039.04 227.734C1038.83 227.482 1038.53 227.235 1038.32 227.07C1038.12 226.906 1038.13 226.992 1038.33 227.243C1038.54 227.494 1038.85 227.828 1039.05 227.906C1039.25 228.071 1039.25 228.071 1039.04 227.734Z" fill="#C3A136"/>
<path d="M1033.07 221.227C1032.96 221.058 1032.76 220.893 1032.66 220.811C1032.56 220.728 1032.66 220.724 1032.76 220.893C1032.87 221.062 1033.07 221.227 1033.07 221.227C1033.18 221.395 1033.18 221.482 1033.07 221.227Z" fill="#C3A136"/>
<path d="M1026.9 214.555C1026.89 214.468 1026.79 214.386 1026.79 214.386C1026.79 214.3 1026.79 214.3 1026.89 214.382C1026.8 214.472 1026.9 214.555 1026.9 214.555C1026.9 214.641 1026.9 214.641 1026.9 214.555Z" fill="#C3A136"/>
<path d="M1063.04 336.04C1063.03 335.954 1063.03 335.954 1063.04 336.04C1062.94 335.958 1062.94 336.044 1062.84 336.048C1062.85 336.134 1062.85 336.134 1062.85 336.134C1062.95 336.13 1063.04 336.126 1063.04 336.04Z" fill="#C3A136"/>
<path d="M1067.64 325.211C1067.64 325.211 1067.63 325.125 1067.64 325.211C1067.53 325.129 1067.54 325.215 1067.45 325.306L1067.45 325.392C1067.55 325.388 1067.54 325.302 1067.64 325.211Z" fill="#C3A136"/>
<path d="M1071.59 315.101C1071.68 314.924 1071.58 314.842 1071.38 314.85C1071.19 314.858 1071 315.038 1070.91 315.215C1070.83 315.392 1070.93 315.474 1071.12 315.466C1071.41 315.454 1071.6 315.274 1071.59 315.101Z" fill="#C3A136"/>
<path d="M1074.7 305.631C1074.78 305.368 1074.58 305.203 1074.3 305.301C1074 305.313 1073.73 305.584 1073.74 305.756C1073.65 306.019 1073.85 306.184 1074.14 306.086C1074.43 306.074 1074.71 305.89 1074.7 305.631Z" fill="#C3A136"/>
<path d="M1077.07 296.796C1077.14 296.36 1076.74 296.117 1076.26 296.223C1075.78 296.243 1075.31 296.608 1075.23 297.043C1075.15 297.393 1075.56 297.722 1076.04 297.616C1076.62 297.506 1077.09 297.141 1077.07 296.796Z" fill="#C3A136"/>
<path d="M1078.59 288.601C1078.66 288.079 1077.96 287.675 1077.19 287.706C1076.41 287.824 1075.76 288.283 1075.69 288.805C1075.62 289.327 1076.32 289.731 1077.09 289.7C1077.87 289.669 1078.52 289.123 1078.59 288.601Z" fill="#C3A136"/>
<path d="M1079.08 281.054C1079.05 280.363 1078.05 279.798 1076.88 279.845C1075.72 279.892 1074.88 280.532 1074.91 281.223C1074.95 281.913 1075.95 282.478 1077.11 282.431C1078.27 282.384 1079.12 281.744 1079.08 281.054Z" fill="#C3A136"/>
<path d="M1078.43 273.985C1078.19 273.13 1076.89 272.49 1075.53 272.459C1074.17 272.427 1073.24 273.157 1073.38 274.017C1073.61 274.872 1074.82 275.602 1076.27 275.543C1077.63 275.488 1078.67 274.841 1078.43 273.985Z" fill="#C3A136"/>
<path d="M1076.54 267.4C1076.1 266.466 1074.61 265.747 1073.05 265.638C1071.58 265.524 1070.64 266.167 1070.99 267.192C1071.33 268.13 1072.83 268.934 1074.39 269.044C1075.94 268.981 1076.88 268.338 1076.54 267.4Z" fill="#C3A136"/>
<path d="M1073.4 261.21C1072.87 260.367 1071.18 259.484 1069.71 259.283C1068.24 259.083 1067.5 259.719 1067.93 260.653C1068.47 261.583 1070.07 262.47 1071.53 262.67C1073.09 262.694 1073.93 262.054 1073.4 261.21Z" fill="#C3A136"/>
<path d="M1069.11 255.241C1068.49 254.401 1066.89 253.601 1065.61 253.306C1064.33 253.012 1063.78 253.554 1064.41 254.393C1065.03 255.233 1066.53 256.124 1067.81 256.332C1069.18 256.536 1069.74 256.081 1069.11 255.241Z" fill="#C3A136"/>
<path d="M1063.76 249.401C1063.14 248.734 1061.74 247.926 1060.75 247.619C1059.77 247.313 1059.49 247.671 1060.02 248.428C1060.64 249.182 1061.95 249.994 1062.93 250.214C1064.11 250.426 1064.48 250.064 1063.76 249.401Z" fill="#C3A136"/>
<path d="M1057.73 243.503C1057.21 242.918 1056.11 242.27 1055.51 242.035C1054.82 241.803 1054.73 241.98 1055.25 242.565C1055.76 243.149 1056.77 243.801 1057.46 244.032C1058.25 244.26 1058.34 244.083 1057.73 243.503Z" fill="#C3A136"/>
<path d="M1051.11 237.627C1050.7 237.211 1050.1 236.803 1049.69 236.56C1049.29 236.317 1049.3 236.489 1049.71 236.819C1050.12 237.235 1050.72 237.643 1051.12 237.886C1051.52 238.043 1051.51 237.957 1051.11 237.627Z" fill="#C3A136"/>
<path d="M1044.19 231.591C1043.89 231.344 1043.48 231.015 1043.28 230.936C1043.08 230.771 1043.09 230.858 1043.39 231.105C1043.69 231.352 1044 231.686 1044.2 231.764C1044.5 231.925 1044.5 231.839 1044.19 231.591Z" fill="#C3A136"/>
<path d="M1036.98 225.481C1036.78 225.316 1036.67 225.147 1036.57 225.065C1036.47 224.983 1036.57 224.979 1036.67 225.147C1036.87 225.312 1036.98 225.481 1037.08 225.563C1037.18 225.646 1037.18 225.646 1036.98 225.481Z" fill="#C3A136"/>
<path d="M1029.66 219.202C1029.56 219.119 1029.46 219.037 1029.46 219.037C1029.46 218.95 1029.46 218.95 1029.56 219.033C1029.56 219.033 1029.66 219.115 1029.66 219.202Z" fill="#C3A136"/>
<path d="M1022.13 212.585L1022.03 212.502C1022.03 212.502 1022.03 212.502 1022.13 212.585C1022.14 212.671 1022.14 212.671 1022.13 212.585Z" fill="#C3A136"/>
<path d="M1071.76 333.697C1071.76 333.61 1071.76 333.61 1071.76 333.697C1071.66 333.614 1071.66 333.7 1071.57 333.704C1071.57 333.791 1071.57 333.791 1071.57 333.791C1071.67 333.787 1071.66 333.7 1071.76 333.697Z" fill="#C3A136"/>
<path d="M1077.43 322.911C1077.43 322.911 1077.43 322.825 1077.43 322.911C1077.33 322.829 1077.33 322.915 1077.24 322.919C1077.24 323.005 1077.24 323.005 1077.24 323.005C1077.34 323.001 1077.43 322.997 1077.43 322.911Z" fill="#C3A136"/>
<path d="M1082.36 312.934C1082.45 312.758 1082.35 312.675 1082.16 312.683C1081.96 312.691 1081.78 312.871 1081.69 313.048C1081.6 313.225 1081.7 313.307 1081.9 313.299C1082.09 313.291 1082.27 313.111 1082.36 312.934Z" fill="#C3A136"/>
<path d="M1086.07 303.786C1086.16 303.609 1085.96 303.444 1085.67 303.456C1085.38 303.468 1085.1 303.738 1085.01 303.915C1084.92 304.092 1085.13 304.257 1085.42 304.245C1085.7 304.147 1085.99 303.962 1086.07 303.786Z" fill="#C3A136"/>
<path d="M1088.75 295.284C1088.83 294.935 1088.43 294.692 1087.95 294.798C1087.47 294.904 1086.99 295.182 1086.92 295.532C1086.84 295.881 1087.24 296.124 1087.72 296.018C1088.3 295.995 1088.77 295.63 1088.75 295.284Z" fill="#C3A136"/>
<path d="M1090.39 287.517C1090.46 286.995 1089.76 286.591 1088.89 286.713C1088.02 286.748 1087.37 287.294 1087.4 287.812C1087.32 288.334 1088.03 288.738 1088.8 288.62C1089.67 288.498 1090.42 288.035 1090.39 287.517Z" fill="#C3A136"/>
<path d="M1090.71 280.41C1090.58 279.723 1089.58 279.244 1088.42 279.291C1087.25 279.338 1086.41 279.978 1086.54 280.665C1086.58 281.356 1087.58 281.834 1088.74 281.787C1090 281.65 1090.84 281.096 1090.71 280.41Z" fill="#C3A136"/>
<path d="M1089.79 273.871C1089.56 273.102 1088.17 272.466 1086.71 272.439C1085.25 272.411 1084.41 273.051 1084.64 273.906C1084.88 274.762 1086.18 275.402 1087.63 275.343C1089.09 275.37 1090.03 274.727 1089.79 273.871Z" fill="#C3A136"/>
<path d="M1087.35 267.913C1086.82 267.07 1085.23 266.355 1083.67 266.245C1082.11 266.136 1081.27 266.775 1081.7 267.623C1082.13 268.471 1083.73 269.271 1085.28 269.295C1086.94 269.401 1087.78 268.761 1087.35 267.913Z" fill="#C3A136"/>
<path d="M1083.56 262.27C1082.84 261.434 1081.05 260.641 1079.58 260.441C1078.11 260.241 1077.37 260.79 1078 261.716C1078.62 262.556 1080.32 263.439 1081.88 263.636C1083.44 263.659 1084.29 263.106 1083.56 262.27Z" fill="#C3A136"/>
<path d="M1078.43 256.854C1077.61 256.108 1075.92 255.311 1074.64 255.017C1073.37 254.809 1072.9 255.26 1073.62 256.01C1074.35 256.846 1076.04 257.643 1077.41 257.847C1078.68 258.055 1079.24 257.599 1078.43 256.854Z" fill="#C3A136"/>
<path d="M1072.23 251.567C1071.42 250.908 1069.92 250.19 1068.94 249.884C1067.95 249.578 1067.68 249.935 1068.49 250.594C1069.2 251.257 1070.7 252.062 1071.78 252.278C1072.76 252.497 1073.04 252.227 1072.23 251.567Z" fill="#C3A136"/>
<path d="M1065.15 246.23C1064.45 245.739 1063.25 245.096 1062.55 244.778C1061.86 244.46 1061.77 244.723 1062.48 245.214C1063.19 245.79 1064.29 246.352 1064.98 246.67C1065.78 246.983 1065.86 246.721 1065.15 246.23Z" fill="#C3A136"/>
<path d="M1057.49 240.83C1056.99 240.418 1056.19 240.017 1055.79 239.774C1055.39 239.531 1055.39 239.703 1055.9 240.029C1056.4 240.441 1057.2 240.842 1057.6 241.085C1058.1 241.324 1057.99 241.155 1057.49 240.83Z" fill="#C3A136"/>
<path d="M1049.64 235.437C1049.03 235.029 1048.33 234.539 1047.93 234.295C1047.53 234.052 1047.72 234.131 1048.33 234.539C1048.93 234.947 1049.64 235.437 1050.04 235.767C1050.44 235.924 1050.24 235.846 1049.64 235.437Z" fill="#C3A136"/>
<path d="M1041.18 229.723C1040.78 229.48 1040.37 229.064 1040.17 228.899C1039.96 228.734 1040.16 228.813 1040.47 229.06C1040.87 229.303 1041.28 229.719 1041.48 229.884C1041.68 230.049 1041.58 229.967 1041.18 229.723Z" fill="#C3A136"/>
<path d="M1032.51 223.585C1032.41 223.503 1032.31 223.421 1032.31 223.421C1032.3 223.334 1032.31 223.421 1032.4 223.417C1032.4 223.417 1032.51 223.499 1032.51 223.585C1032.51 223.585 1032.61 223.668 1032.51 223.585Z" fill="#C3A136"/>
<path d="M1023.73 217.279C1023.73 217.279 1023.73 217.192 1023.73 217.279C1023.63 217.196 1023.73 217.192 1023.73 217.279C1023.83 217.275 1023.83 217.275 1023.73 217.279C1023.83 217.361 1023.83 217.361 1023.73 217.279Z" fill="#C3A136"/>
<path d="M1080.57 331.177C1080.57 331.09 1080.56 331.004 1080.57 331.09C1080.57 331.09 1080.48 331.18 1080.38 331.271C1080.39 331.357 1080.39 331.357 1080.39 331.357C1080.39 331.357 1080.48 331.267 1080.57 331.177Z" fill="#C3A136"/>
<path d="M1087.51 320.513C1087.51 320.426 1087.51 320.426 1087.51 320.426C1087.41 320.43 1087.32 320.521 1087.32 320.521C1087.32 320.607 1087.32 320.607 1087.32 320.607C1087.32 320.607 1087.42 320.603 1087.51 320.513Z" fill="#C3A136"/>
<path d="M1093.33 310.673C1093.41 310.497 1093.31 310.414 1093.12 310.422C1092.93 310.516 1092.65 310.701 1092.56 310.877C1092.47 311.054 1092.57 311.136 1092.77 311.129C1092.96 311.034 1093.24 310.85 1093.33 310.673Z" fill="#C3A136"/>
<path d="M1097.83 301.752C1097.91 301.489 1097.71 301.324 1097.32 301.34C1096.93 301.356 1096.56 301.717 1096.38 301.984C1096.3 302.247 1096.5 302.411 1096.89 302.396C1097.27 302.294 1097.65 302.019 1097.83 301.752Z" fill="#C3A136"/>
<path d="M1101.01 293.663C1101.08 293.227 1100.68 292.898 1099.91 293.015C1099.23 293.129 1098.57 293.588 1098.4 294.028C1098.33 294.464 1098.73 294.793 1099.51 294.676C1100.18 294.562 1100.84 294.103 1101.01 293.663Z" fill="#C3A136"/>
<path d="M1102.77 286.324C1102.84 285.715 1101.94 285.319 1100.88 285.449C1099.82 285.578 1098.97 286.132 1098.91 286.74C1098.84 287.348 1099.74 287.831 1100.8 287.701C1101.76 287.489 1102.7 286.932 1102.77 286.324Z" fill="#C3A136"/>
<path d="M1102.92 279.742C1102.78 278.969 1101.5 278.502 1100.14 278.557C1098.78 278.612 1097.75 279.259 1097.89 280.119C1098.02 280.892 1099.22 281.449 1100.67 281.304C1102.02 281.163 1103.05 280.429 1102.92 279.742Z" fill="#C3A136"/>
<path d="M1101.54 273.741C1101.11 272.893 1099.43 272.269 1097.78 272.25C1096.12 272.23 1095.09 272.964 1095.52 273.812C1095.86 274.664 1097.45 275.378 1099.2 275.307C1100.85 275.327 1101.88 274.593 1101.54 273.741Z" fill="#C3A136"/>
<path d="M1098.35 268.333C1097.73 267.493 1095.75 266.794 1094.09 266.689C1092.43 266.583 1091.59 267.222 1092.22 268.062C1092.84 268.902 1094.63 269.695 1096.38 269.71C1098.04 269.816 1098.98 269.173 1098.35 268.333Z" fill="#C3A136"/>
<path d="M1093.72 263.243C1092.9 262.497 1090.92 261.712 1089.36 261.516C1087.79 261.32 1087.24 261.861 1087.96 262.697C1088.68 263.533 1090.57 264.322 1092.23 264.428C1093.88 264.534 1094.54 263.988 1093.72 263.243Z" fill="#C3A136"/>
<path d="M1087.74 258.38C1086.83 257.638 1084.84 256.853 1083.57 256.646C1082.19 256.355 1081.92 256.799 1082.74 257.544C1083.65 258.286 1085.44 259.079 1086.91 259.279C1088.28 259.569 1088.65 259.122 1087.74 258.38Z" fill="#C3A136"/>
<path d="M1080.6 253.651C1079.6 253.086 1078 252.372 1076.92 252.07C1075.84 251.767 1075.76 252.117 1076.66 252.772C1077.57 253.428 1079.16 254.142 1080.24 254.358C1081.32 254.487 1081.5 254.22 1080.6 253.651Z" fill="#C3A136"/>
<path d="M1072.58 248.871C1071.78 248.384 1070.48 247.745 1069.69 247.517C1068.9 247.289 1069.01 247.458 1069.81 247.945C1070.61 248.431 1071.91 249.071 1072.7 249.299C1073.39 249.53 1073.38 249.358 1072.58 248.871Z" fill="#C3A136"/>
<path d="M1064.07 244.024C1063.27 243.538 1062.07 242.894 1061.47 242.659C1060.87 242.337 1061.08 242.502 1061.88 242.988C1062.68 243.475 1063.78 244.122 1064.48 244.354C1065.07 244.589 1064.87 244.511 1064.07 244.024Z" fill="#C3A136"/>
<path d="M1054.87 238.946C1054.27 238.624 1053.47 238.138 1053.16 237.89C1052.86 237.643 1053.06 237.722 1053.66 238.13C1054.26 238.451 1055.06 238.938 1055.37 239.185C1055.67 239.346 1055.47 239.268 1054.87 238.946Z" fill="#C3A136"/>
<path d="M1045.26 233.538C1044.86 233.295 1044.46 232.965 1044.26 232.887C1044.15 232.718 1044.25 232.8 1044.65 232.957C1045.05 233.201 1045.46 233.53 1045.66 233.609C1045.76 233.778 1045.66 233.781 1045.26 233.538Z" fill="#C3A136"/>
<path d="M1035.45 227.879C1035.35 227.797 1035.15 227.632 1035.05 227.549C1035.04 227.463 1035.04 227.463 1035.24 227.628C1035.44 227.706 1035.55 227.875 1035.65 227.957C1035.65 227.957 1035.55 227.961 1035.45 227.879Z" fill="#C3A136"/>
<path d="M1025.52 221.792L1025.42 221.71C1025.42 221.71 1025.51 221.706 1025.52 221.792C1025.62 221.788 1025.62 221.788 1025.52 221.792C1025.62 221.788 1025.62 221.874 1025.52 221.792Z" fill="#C3A136"/>
<path d="M1104.38 308.322C1104.47 308.145 1104.37 308.063 1104.17 308.071C1103.98 308.165 1103.7 308.263 1103.71 308.436C1103.62 308.612 1103.72 308.695 1103.91 308.6C1104.01 308.683 1104.29 308.498 1104.38 308.322Z" fill="#C3A136"/>
<path d="M1109.38 299.64C1109.47 299.464 1109.26 299.299 1108.97 299.311C1108.68 299.322 1108.31 299.597 1108.13 299.864C1108.04 300.127 1108.15 300.296 1108.53 300.194C1108.82 300.182 1109.2 299.907 1109.38 299.64Z" fill="#C3A136"/>
<path d="M1112.87 291.971C1112.95 291.535 1112.55 291.292 1111.87 291.406C1111.2 291.52 1110.64 291.889 1110.56 292.238C1110.48 292.674 1110.88 292.917 1111.56 292.803C1112.13 292.693 1112.7 292.324 1112.87 291.971Z" fill="#C3A136"/>
<path d="M1114.66 285.063C1114.63 284.545 1113.84 284.145 1112.77 284.275C1111.71 284.404 1110.96 284.867 1110.89 285.476C1110.92 285.994 1111.72 286.394 1112.68 286.268C1113.74 286.139 1114.59 285.585 1114.66 285.063Z" fill="#C3A136"/>
<path d="M1114.64 278.921C1114.41 278.238 1113.12 277.771 1111.76 277.826C1110.41 277.881 1109.47 278.525 1109.6 279.212C1109.73 279.899 1111.02 280.366 1112.38 280.311C1113.83 280.252 1114.87 279.604 1114.64 278.921Z" fill="#C3A136"/>
<path d="M1112.9 273.54C1112.38 272.783 1110.7 272.159 1109.05 272.226C1107.39 272.206 1106.46 272.85 1106.89 273.698C1107.32 274.459 1109 275.083 1110.65 275.016C1112.3 274.949 1113.33 274.302 1112.9 273.54Z" fill="#C3A136"/>
<path d="M1109.25 268.67C1108.43 267.838 1106.36 267.23 1104.61 267.128C1102.85 267.026 1102.11 267.661 1102.83 268.411C1103.55 269.247 1105.53 269.946 1107.38 269.957C1109.13 270.059 1110.07 269.416 1109.25 268.67Z" fill="#C3A136"/>
<path d="M1103.97 264.125C1102.86 263.391 1100.59 262.618 1098.93 262.426C1097.26 262.234 1096.71 262.775 1097.72 263.6C1098.64 264.428 1100.82 265.205 1102.67 265.303C1104.42 265.405 1104.98 264.863 1103.97 264.125Z" fill="#C3A136"/>
<path d="M1097.14 259.816C1095.94 259.086 1093.76 258.396 1092.29 258.109C1090.82 257.823 1090.55 258.266 1091.75 258.996C1092.86 259.73 1094.94 260.511 1096.51 260.707C1097.97 260.907 1098.34 260.546 1097.14 259.816Z" fill="#C3A136"/>
<path d="M1088.95 255.562C1087.76 255.005 1085.97 254.298 1084.79 254C1083.71 253.698 1083.62 253.961 1084.73 254.609C1085.83 255.256 1087.61 255.962 1088.79 256.174C1090.07 256.469 1090.15 256.206 1088.95 255.562Z" fill="#C3A136"/>
<path d="M1080.09 251.335C1078.89 250.778 1077.21 250.154 1076.32 249.758C1075.43 249.448 1075.63 249.613 1076.73 250.174C1077.82 250.735 1079.41 251.449 1080.4 251.755C1081.39 252.062 1081.28 251.893 1080.09 251.335Z" fill="#C3A136"/>
<path d="M1070.54 247.05C1069.45 246.575 1067.95 245.857 1067.26 245.539C1066.56 245.135 1066.86 245.382 1067.95 245.857C1069.05 246.332 1070.44 247.054 1071.24 247.368C1071.93 247.686 1071.63 247.525 1070.54 247.05Z" fill="#C3A136"/>
<path d="M1060.19 242.364C1059.3 241.968 1058.3 241.403 1057.8 241.163C1057.4 240.92 1057.7 240.995 1058.59 241.391C1059.39 241.791 1060.49 242.353 1060.89 242.596C1061.38 242.835 1061.09 242.761 1060.19 242.364Z" fill="#C3A136"/>
<path d="M1049.44 237.262C1048.94 237.023 1048.44 236.697 1048.24 236.533C1048.03 236.368 1048.32 236.356 1048.72 236.599C1049.22 236.839 1049.73 237.164 1049.93 237.329C1050.14 237.58 1049.94 237.502 1049.44 237.262Z" fill="#C3A136"/>
<path d="M1038.48 231.91C1038.28 231.831 1037.97 231.584 1037.97 231.498C1037.87 231.415 1038.06 231.407 1038.26 231.572C1038.46 231.651 1038.77 231.898 1038.77 231.984C1038.87 232.067 1038.68 232.074 1038.48 231.91Z" fill="#C3A136"/>
<path d="M1027.49 226.211C1027.39 226.129 1027.39 226.129 1027.3 226.133C1027.3 226.133 1027.3 226.133 1027.39 226.129C1027.49 226.125 1027.59 226.121 1027.49 226.211C1027.59 226.207 1027.59 226.207 1027.49 226.211Z" fill="#C3A136"/>
<path d="M1098.77 325.854C1098.85 325.677 1098.95 325.587 1098.76 325.681C1098.66 325.771 1098.47 325.866 1098.29 326.046C1098.1 326.227 1098.1 326.227 1098.3 326.219C1098.39 326.129 1098.58 326.034 1098.77 325.854Z" fill="#C3A136"/>
<path d="M1108.14 315.351C1108.23 315.261 1108.23 315.174 1108.13 315.178C1108.04 315.182 1107.85 315.363 1107.66 315.457C1107.57 315.547 1107.57 315.634 1107.67 315.63C1107.86 315.535 1108.05 315.441 1108.14 315.351Z" fill="#C3A136"/>
<path d="M1115.91 305.778C1116.09 305.511 1115.99 305.343 1115.6 305.445C1115.22 305.547 1114.85 305.821 1114.67 306.088C1114.48 306.355 1114.59 306.524 1114.97 306.422C1115.26 306.41 1115.73 306.045 1115.91 305.778Z" fill="#C3A136"/>
<path d="M1121.61 297.414C1121.78 297.061 1121.48 296.9 1121 297.006C1120.43 297.116 1119.86 297.485 1119.69 297.838C1119.51 298.191 1119.81 298.439 1120.29 298.333C1120.77 298.14 1121.33 297.771 1121.61 297.414Z" fill="#C3A136"/>
<path d="M1124.93 290.185C1125.01 289.835 1124.61 289.592 1123.93 289.706C1123.26 289.82 1122.7 290.189 1122.52 290.542C1122.44 290.891 1122.84 291.135 1123.52 291.021C1124.19 290.907 1124.85 290.534 1124.93 290.185Z" fill="#C3A136"/>
<path d="M1126.74 283.709C1126.71 283.191 1125.92 282.877 1124.86 283.006C1123.79 283.136 1122.94 283.603 1122.97 284.121C1123 284.639 1123.79 284.953 1124.85 284.824C1125.82 284.784 1126.76 284.227 1126.74 283.709Z" fill="#C3A136"/>
<path d="M1126.45 278.097C1126.23 277.5 1124.84 277.037 1123.49 277.178C1122.13 277.233 1121.19 277.791 1121.42 278.473C1121.65 279.156 1122.93 279.537 1124.28 279.396C1125.74 279.337 1126.78 278.775 1126.45 278.097Z" fill="#C3A136"/>
<path d="M1124.26 273.253C1123.74 272.582 1121.87 272.053 1120.22 272.119C1118.57 272.186 1117.72 272.74 1118.24 273.411C1118.76 274.082 1120.45 274.706 1122.19 274.635C1123.84 274.568 1124.78 273.925 1124.26 273.253Z" fill="#C3A136"/>
<path d="M1120.05 268.925C1119.15 268.269 1116.98 267.665 1115.22 267.563C1113.47 267.461 1112.82 268.007 1113.63 268.752C1114.45 269.498 1116.52 270.106 1118.37 270.118C1120.12 270.134 1120.87 269.584 1120.05 268.925Z" fill="#C3A136"/>
<path d="M1114.02 264.93C1112.82 264.286 1110.36 263.607 1108.69 263.415C1107.03 263.223 1106.57 263.674 1107.68 264.408C1108.78 265.142 1111.05 265.828 1112.9 265.926C1114.66 266.115 1115.22 265.573 1114.02 264.93Z" fill="#C3A136"/>
<path d="M1106.34 261.174C1104.95 260.538 1102.58 259.855 1101.12 259.655C1099.64 259.369 1099.47 259.722 1100.76 260.362C1102.06 261.001 1104.33 261.774 1105.9 261.971C1107.46 262.167 1107.74 261.81 1106.34 261.174Z" fill="#C3A136"/>
<path d="M1097.31 257.473C1095.92 256.924 1093.85 256.229 1092.67 255.931C1091.48 255.633 1091.59 255.888 1092.89 256.441C1094.18 256.994 1096.25 257.689 1097.44 257.987C1098.81 258.278 1098.7 258.023 1097.31 257.473Z" fill="#C3A136"/>
<path d="M1087.5 253.717C1086.11 253.168 1084.33 252.548 1083.34 252.242C1082.45 251.932 1082.75 252.093 1083.95 252.65C1085.24 253.203 1087.02 253.823 1088.01 254.13C1089.09 254.432 1088.79 254.184 1087.5 253.717Z" fill="#C3A136"/>
<path d="M1076.81 249.825C1075.52 249.358 1073.83 248.734 1073.13 248.329C1072.44 248.012 1072.83 248.168 1074.12 248.635C1075.41 249.102 1076.99 249.73 1077.79 250.131C1078.59 250.445 1078.09 250.292 1076.81 249.825Z" fill="#C3A136"/>
<path d="M1065.41 245.527C1064.42 245.135 1063.32 244.66 1062.82 244.334C1062.42 244.091 1062.81 244.162 1063.81 244.554C1064.7 244.951 1065.89 245.421 1066.3 245.751C1066.79 245.99 1066.4 245.92 1065.41 245.527Z" fill="#C3A136"/>
<path d="M1053.61 240.901C1052.92 240.669 1052.22 240.265 1052.01 240.1C1051.81 239.935 1052.1 239.923 1052.8 240.241C1053.39 240.477 1054.09 240.881 1054.39 241.042C1054.6 241.207 1054.31 241.218 1053.61 240.901Z" fill="#C3A136"/>
<path d="M1041.59 235.85C1041.29 235.689 1040.9 235.532 1040.79 235.45C1040.69 235.281 1040.89 235.359 1041.28 235.516C1041.58 235.677 1041.98 235.834 1042.08 235.917C1042.18 235.999 1041.99 236.007 1041.59 235.85Z" fill="#C3A136"/>
<path d="M1029.55 230.367C1029.45 230.285 1029.45 230.285 1029.35 230.203C1029.35 230.203 1029.35 230.203 1029.45 230.199C1029.54 230.195 1029.55 230.281 1029.65 230.277C1029.65 230.364 1029.55 230.367 1029.55 230.367Z" fill="#C3A136"/>
<path d="M1108.05 323.055C1108.23 322.875 1108.23 322.875 1108.14 322.879C1108.04 322.882 1107.86 323.063 1107.67 323.157C1107.48 323.338 1107.48 323.338 1107.58 323.334C1107.67 323.33 1107.86 323.149 1108.05 323.055Z" fill="#C3A136"/>
<path d="M1118.69 312.501C1118.78 312.411 1118.77 312.325 1118.68 312.328C1118.58 312.332 1118.39 312.513 1118.21 312.607C1118.12 312.784 1118.12 312.784 1118.21 312.78C1118.41 312.772 1118.6 312.678 1118.69 312.501Z" fill="#C3A136"/>
<path d="M1127.44 303.148C1127.62 302.881 1127.51 302.713 1127.13 302.815C1126.75 302.917 1126.28 303.195 1126 303.466C1125.82 303.733 1125.92 303.902 1126.31 303.8C1126.7 303.784 1127.17 303.505 1127.44 303.148Z" fill="#C3A136"/>
<path d="M1133.54 295.114C1133.72 294.761 1133.51 294.596 1132.94 294.706C1132.36 294.816 1131.79 295.185 1131.61 295.452C1131.44 295.805 1131.64 295.97 1132.22 295.86C1132.8 295.836 1133.36 295.467 1133.54 295.114Z" fill="#C3A136"/>
<path d="M1137.37 288.21C1137.44 287.775 1136.95 287.622 1136.18 287.739C1135.4 287.857 1134.74 288.23 1134.57 288.67C1134.4 289.109 1134.89 289.262 1135.66 289.144C1136.53 289.023 1137.29 288.646 1137.37 288.21Z" fill="#C3A136"/>
<path d="M1139.2 282.252C1139.17 281.734 1138.19 281.428 1137.03 281.562C1135.87 281.695 1134.92 282.253 1134.95 282.771C1134.98 283.289 1135.87 283.685 1137.12 283.461C1138.19 283.332 1139.23 282.77 1139.2 282.252Z" fill="#C3A136"/>
<path d="M1138.75 277.166C1138.42 276.573 1136.85 276.118 1135.3 276.267C1133.75 276.416 1132.71 276.978 1133.03 277.57C1133.26 278.253 1134.74 278.712 1136.39 278.559C1137.94 278.496 1139.07 277.845 1138.75 277.166Z" fill="#C3A136"/>
<path d="M1136 272.865C1135.29 272.201 1133.22 271.766 1131.38 271.84C1129.53 271.829 1128.69 272.468 1129.31 273.136C1129.92 273.803 1131.9 274.329 1133.74 274.254C1135.67 274.089 1136.71 273.528 1136 272.865Z" fill="#C3A136"/>
<path d="M1131.04 269.085C1129.94 268.438 1127.39 267.935 1125.54 267.837C1123.69 267.739 1123.03 268.285 1124.04 269.023C1125.05 269.674 1127.42 270.357 1129.36 270.278C1131.4 270.282 1132.15 269.733 1131.04 269.085Z" fill="#C3A136"/>
<path d="M1124.16 265.643C1122.77 265.008 1120.12 264.423 1118.36 264.321C1116.6 264.133 1116.24 264.58 1117.63 265.216C1118.93 265.855 1121.49 266.53 1123.34 266.628C1125.09 266.73 1125.56 266.279 1124.16 265.643Z" fill="#C3A136"/>
<path d="M1115.54 262.445C1113.96 261.903 1111.4 261.229 1109.93 261.028C1108.36 260.746 1108.38 261.091 1109.87 261.723C1111.36 262.355 1113.82 262.947 1115.39 263.144C1117.04 263.25 1117.13 262.987 1115.54 262.445Z" fill="#C3A136"/>
<path d="M1105.66 259.211C1104.08 258.756 1101.82 258.156 1100.64 257.858C1099.45 257.559 1099.66 257.724 1101.14 258.27C1102.63 258.815 1104.8 259.419 1106.07 259.627C1107.35 259.922 1107.14 259.671 1105.66 259.211Z" fill="#C3A136"/>
<path d="M1094.71 255.935C1093.23 255.476 1091.25 254.863 1090.36 254.553C1089.37 254.247 1089.87 254.4 1091.25 254.863C1092.64 255.326 1094.61 255.939 1095.59 256.158C1096.58 256.464 1096.19 256.394 1094.71 255.935Z" fill="#C3A136"/>
<path d="M1083.16 252.509C1081.68 252.05 1079.9 251.43 1079.11 251.116C1078.31 250.715 1078.9 250.865 1080.38 251.324C1081.76 251.787 1083.55 252.407 1084.34 252.721C1085.13 253.035 1084.64 252.968 1083.16 252.509Z" fill="#C3A136"/>
<path d="M1070.72 248.687C1069.54 248.302 1068.25 247.835 1067.84 247.505C1067.34 247.18 1067.93 247.329 1069.02 247.631C1070.1 248.019 1071.39 248.486 1071.89 248.812C1072.39 249.052 1071.9 248.985 1070.72 248.687Z" fill="#C3A136"/>
<path d="M1057.87 244.362C1057.08 244.134 1056.38 243.73 1056.08 243.569C1055.87 243.404 1056.26 243.389 1056.96 243.707C1057.65 243.938 1058.45 244.338 1058.75 244.499C1059.05 244.66 1058.66 244.59 1057.87 244.362Z" fill="#C3A136"/>
<path d="M1044.8 239.7C1044.4 239.543 1044 239.3 1043.8 239.221C1043.7 239.052 1043.99 239.127 1044.39 239.284C1044.79 239.441 1045.19 239.684 1045.29 239.767C1045.49 239.845 1045.29 239.853 1044.8 239.7Z" fill="#C3A136"/>
<path d="M1031.7 234.433C1031.61 234.437 1031.51 234.355 1031.51 234.355C1031.5 234.269 1031.5 234.269 1031.7 234.433C1031.7 234.347 1031.8 234.429 1031.8 234.429C1031.8 234.429 1031.7 234.433 1031.7 234.433Z" fill="#C3A136"/>
<path d="M1117.51 319.99C1117.7 319.895 1117.69 319.723 1117.6 319.813C1117.5 319.817 1117.22 320.001 1117.04 320.182C1116.85 320.363 1116.86 320.449 1116.95 320.359C1117.05 320.355 1117.33 320.17 1117.51 319.99Z" fill="#C3A136"/>
<path d="M1129.52 309.553C1129.7 309.373 1129.7 309.373 1129.51 309.381C1129.31 309.388 1129.13 309.569 1128.94 309.663C1128.75 309.844 1128.75 309.844 1128.95 309.836C1129.14 309.828 1129.33 309.734 1129.52 309.553Z" fill="#C3A136"/>
<path d="M1139.16 300.51C1139.44 300.239 1139.33 300.071 1138.95 300.173C1138.57 300.275 1138.09 300.553 1137.82 300.824C1137.54 301.095 1137.64 301.264 1138.03 301.162C1138.41 301.06 1138.88 300.781 1139.16 300.51Z" fill="#C3A136"/>
<path d="M1146.15 292.7C1146.42 292.256 1146.12 292.095 1145.35 292.213C1144.57 292.331 1143.82 292.794 1143.55 293.151C1143.28 293.595 1143.58 293.842 1144.35 293.638C1145.03 293.61 1145.88 293.143 1146.15 292.7Z" fill="#C3A136"/>
<path d="M1149.8 286.236C1149.98 285.882 1149.38 285.647 1148.62 285.851C1147.84 285.969 1147.18 286.342 1147.01 286.695C1146.83 287.048 1147.33 287.287 1148.1 287.083C1148.97 287.048 1149.72 286.585 1149.8 286.236Z" fill="#C3A136"/>
<path d="M1151.56 280.8C1151.54 280.368 1150.56 280.062 1149.3 280.199C1148.14 280.333 1147.19 280.804 1147.22 281.322C1147.24 281.754 1148.13 282.064 1149.39 281.926C1150.64 281.702 1151.59 281.231 1151.56 280.8Z" fill="#C3A136"/>
<path d="M1150.75 276.247C1150.43 275.741 1148.76 275.376 1147.21 275.525C1145.67 275.674 1144.72 276.145 1145.04 276.738C1145.36 277.331 1146.84 277.703 1148.48 277.464C1150.03 277.315 1151.07 276.753 1150.75 276.247Z" fill="#C3A136"/>
<path d="M1147.44 272.401C1146.64 271.828 1144.48 271.483 1142.63 271.471C1140.79 271.546 1140.04 272.009 1140.75 272.672C1141.46 273.249 1143.52 273.684 1145.37 273.61C1147.31 273.531 1148.25 272.974 1147.44 272.401Z" fill="#C3A136"/>
<path d="M1141.84 269.167C1140.54 268.614 1138 268.198 1136.05 268.104C1134.2 268.092 1133.64 268.461 1134.84 269.105C1135.93 269.666 1138.39 270.172 1140.43 270.176C1142.37 270.184 1143.03 269.724 1141.84 269.167Z" fill="#C3A136"/>
<path d="M1134.3 266.271C1132.62 265.733 1129.78 265.243 1127.92 265.058C1126.07 264.874 1125.89 265.227 1127.38 265.859C1128.87 266.405 1131.62 266.985 1133.57 267.079C1135.51 267.174 1135.88 266.813 1134.3 266.271Z" fill="#C3A136"/>
<path d="M1124.84 263.626C1122.96 263.096 1120.22 262.602 1118.55 262.323C1116.99 262.127 1117.09 262.296 1118.78 262.92C1120.46 263.457 1123.21 264.038 1124.97 264.226C1126.72 264.328 1126.61 264.073 1124.84 263.626Z" fill="#C3A136"/>
<path d="M1113.91 260.867C1112.14 260.42 1109.58 259.831 1108.3 259.537C1107.02 259.243 1107.42 259.4 1109.1 259.937C1110.78 260.389 1113.23 260.981 1114.61 261.272C1116.08 261.472 1115.68 261.315 1113.91 260.867Z" fill="#C3A136"/>
<path d="M1102.1 258.058C1100.33 257.61 1098.07 257.01 1096.98 256.708C1095.99 256.402 1096.48 256.468 1098.26 257.002C1099.94 257.453 1102.2 258.054 1103.29 258.356C1104.46 258.568 1103.88 258.505 1102.1 258.058Z" fill="#C3A136"/>
<path d="M1089.51 255.02C1087.83 254.569 1085.86 253.957 1085.07 253.643C1084.27 253.329 1084.96 253.388 1086.53 253.843C1088.11 254.298 1090.09 254.911 1090.97 255.134C1091.77 255.534 1091.18 255.472 1089.51 255.02Z" fill="#C3A136"/>
<path d="M1076.02 251.587C1074.74 251.206 1073.35 250.743 1072.86 250.504C1072.36 250.264 1072.94 250.327 1074.22 250.621C1075.4 250.92 1076.89 251.465 1077.39 251.705C1077.89 251.944 1077.3 251.881 1076.02 251.587Z" fill="#C3A136"/>
<path d="M1062.12 247.651C1061.33 247.423 1060.43 247.027 1060.13 246.866C1059.83 246.705 1060.32 246.685 1061.21 246.995C1062 247.223 1062.89 247.619 1063.19 247.78C1063.49 247.941 1063.01 247.961 1062.12 247.651Z" fill="#C3A136"/>
<path d="M1048.09 243.201C1047.79 243.04 1047.4 242.969 1047.29 242.8C1047.19 242.718 1047.38 242.71 1047.78 242.867C1048.08 242.942 1048.47 243.099 1048.57 243.181C1048.58 243.354 1048.39 243.362 1048.09 243.201Z" fill="#C3A136"/>
<path d="M1033.94 238.323C1033.84 238.24 1033.64 238.162 1033.64 238.162C1033.64 238.076 1033.74 238.158 1033.84 238.154C1033.94 238.236 1034.14 238.315 1034.14 238.315C1034.14 238.401 1034.05 238.405 1033.94 238.323Z" fill="#C3A136"/>
<path d="M1150.68 297.708C1150.77 297.617 1150.77 297.531 1150.57 297.539C1150.38 297.547 1150.19 297.727 1150.1 297.817C1150.01 297.908 1150.01 297.994 1150.21 297.986C1150.31 297.982 1150.59 297.798 1150.68 297.708Z" fill="#C3A136"/>
<path d="M1158.08 290.313C1158.26 290.133 1158.06 289.968 1157.68 290.07C1157.19 290.176 1156.72 290.454 1156.63 290.631C1156.45 290.898 1156.65 290.976 1157.04 290.874C1157.42 290.772 1157.89 290.494 1158.08 290.313Z" fill="#C3A136"/>
<path d="M1162.52 284.163C1162.6 283.813 1162.11 283.66 1161.34 283.778C1160.57 283.896 1159.81 284.273 1159.63 284.626C1159.46 284.979 1159.95 285.132 1160.82 285.011C1161.59 284.893 1162.35 284.516 1162.52 284.163Z" fill="#C3A136"/>
<path d="M1164.11 279.167C1164.09 278.735 1162.92 278.523 1161.66 278.66C1160.4 278.798 1159.46 279.269 1159.57 279.697C1159.6 280.128 1160.68 280.43 1161.93 280.207C1163.19 280.069 1164.23 279.594 1164.11 279.167Z" fill="#C3A136"/>
<path d="M1163.03 275.144C1162.52 274.645 1160.76 274.371 1159.12 274.524C1157.47 274.677 1156.52 275.148 1156.94 275.737C1157.36 276.239 1159.03 276.604 1160.76 276.361C1162.4 276.121 1163.54 275.556 1163.03 275.144Z" fill="#C3A136"/>
<path d="M1159.17 271.839C1158.18 271.36 1155.83 271.023 1153.89 271.102C1151.95 271.18 1151.19 271.643 1152.09 272.126C1153 272.695 1155.15 273.04 1157.19 272.958C1159.23 272.875 1160.07 272.322 1159.17 271.839Z" fill="#C3A136"/>
<path d="M1152.82 269.155C1151.34 268.696 1148.5 268.292 1146.55 268.284C1144.61 268.276 1144.14 268.641 1145.53 269.191C1146.82 269.744 1149.47 270.156 1151.51 270.16C1153.64 270.073 1154.2 269.618 1152.82 269.155Z" fill="#C3A136"/>
<path d="M1144.24 266.82C1142.47 266.373 1139.44 265.976 1137.68 265.874C1135.83 265.776 1135.84 266.035 1137.52 266.487C1139.19 266.938 1141.94 267.432 1143.89 267.527C1145.74 267.538 1146.01 267.267 1144.24 266.82Z" fill="#C3A136"/>
<path d="M1133.93 264.642C1131.96 264.203 1128.92 263.72 1127.36 263.524C1125.79 263.328 1126 263.493 1127.87 263.936C1129.73 264.379 1132.58 264.87 1134.34 265.058C1136.1 265.247 1135.89 265.082 1133.93 264.642Z" fill="#C3A136"/>
<path d="M1122.15 262.437C1120.19 262.084 1117.44 261.589 1116.17 261.295C1114.89 261.001 1115.38 261.154 1117.25 261.511C1119.11 261.868 1121.76 262.453 1123.14 262.657C1124.61 262.943 1124.11 262.79 1122.15 262.437Z" fill="#C3A136"/>
<path d="M1109.3 260.102C1107.44 259.745 1105.18 259.231 1104.19 258.925C1103.2 258.619 1103.89 258.678 1105.65 259.039C1107.42 259.4 1109.68 259.914 1110.77 260.216C1111.75 260.436 1111.16 260.373 1109.3 260.102Z" fill="#C3A136"/>
<path d="M1095.66 257.454C1093.89 257.093 1091.92 256.567 1091.13 256.253C1090.33 255.939 1091.11 255.994 1092.79 256.359C1094.46 256.724 1096.43 257.249 1097.22 257.563C1098.11 257.873 1097.43 257.815 1095.66 257.454Z" fill="#C3A136"/>
<path d="M1081.31 254.401C1079.94 254.11 1078.56 253.647 1078.06 253.408C1077.56 253.168 1078.24 253.227 1079.52 253.522C1080.8 253.816 1082.28 254.275 1082.78 254.514C1083.27 254.667 1082.59 254.695 1081.31 254.401Z" fill="#C3A136"/>
<path d="M1066.46 250.849C1065.57 250.626 1064.58 250.233 1064.38 250.068C1064.08 249.907 1064.66 249.884 1065.55 250.108C1066.43 250.331 1067.32 250.641 1067.63 250.888C1067.93 251.049 1067.35 251.073 1066.46 250.849Z" fill="#C3A136"/>
<path d="M1051.38 246.788C1050.89 246.635 1050.39 246.395 1050.29 246.313C1050.18 246.144 1050.48 246.219 1050.97 246.372C1051.47 246.525 1051.96 246.678 1052.07 246.847C1052.26 246.925 1051.97 246.937 1051.38 246.788Z" fill="#C3A136"/>
<path d="M1036.28 242.122C1036.08 242.043 1035.88 241.965 1035.87 241.879C1035.87 241.792 1035.97 241.875 1036.17 241.953C1036.37 242.032 1036.57 242.11 1036.57 242.196C1036.57 242.196 1036.47 242.2 1036.28 242.122Z" fill="#C3A136"/>
<path d="M1162.87 294.705C1162.96 294.614 1162.96 294.528 1162.77 294.622C1162.57 294.63 1162.39 294.811 1162.29 294.815C1162.2 294.905 1162.2 294.991 1162.39 294.897C1162.59 294.889 1162.78 294.795 1162.87 294.705Z" fill="#C3A136"/>
<path d="M1171.34 287.526C1171.62 287.169 1171.32 287.008 1170.55 287.212C1169.88 287.326 1169.02 287.707 1168.75 288.064C1168.48 288.421 1168.77 288.582 1169.45 288.468C1170.12 288.268 1170.97 287.887 1171.34 287.526Z" fill="#C3A136"/>
<path d="M1175.33 281.913C1175.51 281.647 1174.92 281.497 1174.06 281.619C1173.28 281.737 1172.53 282.114 1172.35 282.381C1172.17 282.734 1172.76 282.883 1173.53 282.765C1174.4 282.644 1175.25 282.263 1175.33 281.913Z" fill="#C3A136"/>
<path d="M1176.76 277.443C1176.64 277.102 1175.56 276.886 1174.31 277.11C1173.05 277.247 1172.2 277.714 1172.32 278.142C1172.44 278.57 1173.42 278.703 1174.68 278.566C1175.83 278.26 1176.88 277.871 1176.76 277.443Z" fill="#C3A136"/>
<path d="M1175.12 273.962C1174.62 273.55 1172.76 273.365 1171.21 273.515C1169.57 273.668 1168.71 274.048 1169.22 274.547C1169.73 274.959 1171.4 275.238 1173.04 275.084C1174.68 274.845 1175.63 274.374 1175.12 273.962Z" fill="#C3A136"/>
<path d="M1170.71 271.285C1169.62 270.897 1167.18 270.65 1165.34 270.724C1163.49 270.799 1162.83 271.172 1163.83 271.651C1164.82 272.043 1167.07 272.385 1169.01 272.22C1170.94 272.055 1171.7 271.678 1170.71 271.285Z" fill="#C3A136"/>
<path d="M1163.7 269.147C1162.13 268.778 1159.1 268.468 1157.15 268.46C1155.21 268.452 1154.84 268.727 1156.41 269.182C1157.89 269.555 1160.63 269.963 1162.67 269.881C1164.71 269.798 1165.27 269.516 1163.7 269.147Z" fill="#C3A136"/>
<path d="M1154.37 267.275C1152.41 266.922 1149.19 266.62 1147.34 266.522C1145.49 266.424 1145.59 266.592 1147.46 266.949C1149.32 267.307 1152.35 267.703 1154.3 267.797C1156.25 267.891 1156.24 267.632 1154.37 267.275Z" fill="#C3A136"/>
<path d="M1143.11 265.654C1140.86 265.313 1137.73 264.921 1136.07 264.728C1134.41 264.536 1134.8 264.607 1136.96 265.039C1139.02 265.388 1142.06 265.87 1143.81 265.972C1145.56 266.074 1145.27 266 1143.11 265.654Z" fill="#C3A136"/>
<path d="M1130.39 263.92C1128.24 263.575 1125.4 263.171 1124.12 262.877C1122.84 262.582 1123.43 262.645 1125.49 262.994C1127.54 263.343 1130.29 263.752 1131.66 263.956C1133.03 264.246 1132.45 264.183 1130.39 263.92Z" fill="#C3A136"/>
<path d="M1116.69 261.966C1114.53 261.621 1111.88 261.123 1110.8 260.82C1109.71 260.518 1110.59 260.569 1112.65 260.918C1114.71 261.268 1117.36 261.766 1118.44 262.068C1119.62 262.366 1118.84 262.312 1116.69 261.966Z" fill="#C3A136"/>
<path d="M1102.1 259.788C1100.13 259.435 1097.88 259.008 1097.08 258.607C1096.29 258.293 1097.16 258.344 1099.12 258.698C1100.99 259.055 1103.25 259.482 1104.14 259.792C1104.83 260.11 1103.96 260.059 1102.1 259.788Z" fill="#C3A136"/>
<path d="M1086.6 257.128C1085.13 256.842 1083.46 256.39 1083.06 256.147C1082.56 255.908 1083.33 255.876 1084.81 256.163C1086.28 256.449 1087.86 256.904 1088.35 257.144C1088.85 257.383 1088.07 257.328 1086.6 257.128Z" fill="#C3A136"/>
<path d="M1070.79 253.875C1069.81 253.655 1068.82 253.349 1068.52 253.188C1068.22 253.027 1068.8 253.004 1069.79 253.224C1070.77 253.443 1071.76 253.749 1072.06 253.91C1072.36 254.071 1071.78 254.095 1070.79 253.875Z" fill="#C3A136"/>
<path d="M1054.66 250.029C1054.46 249.951 1054.36 249.869 1054.26 249.872C1054.26 249.786 1054.36 249.869 1054.55 249.861C1054.75 249.939 1054.85 249.935 1054.95 250.018C1054.95 250.018 1054.85 250.022 1054.66 250.029Z" fill="#C3A136"/>
<path d="M1038.69 245.658C1038.59 245.662 1038.59 245.576 1038.49 245.579C1038.49 245.579 1038.59 245.576 1038.69 245.658C1038.69 245.572 1038.79 245.654 1038.79 245.654C1038.79 245.74 1038.79 245.74 1038.69 245.658Z" fill="#C3A136"/>
<path d="M1175.53 291.509C1175.72 291.415 1175.62 291.333 1175.43 291.427C1175.24 291.521 1174.86 291.623 1174.77 291.8C1174.58 291.894 1174.59 291.98 1174.87 291.882C1175.06 291.788 1175.35 291.69 1175.53 291.509Z" fill="#C3A136"/>
<path d="M1183.65 284.865C1183.83 284.684 1183.63 284.606 1183.25 284.708C1182.87 284.81 1182.49 284.998 1182.3 285.179C1182.12 285.359 1182.32 285.438 1182.7 285.336C1183.08 285.233 1183.46 285.045 1183.65 284.865Z" fill="#C3A136"/>
<path d="M1188.14 279.664C1188.23 279.487 1187.74 279.334 1187.07 279.535C1186.39 279.648 1185.83 279.931 1185.74 280.108C1185.65 280.371 1186.05 280.441 1186.72 280.327C1187.39 280.214 1188.06 279.927 1188.14 279.664Z" fill="#C3A136"/>
<path d="M1189.78 275.618C1189.67 275.276 1188.4 275.155 1187.05 275.296C1185.7 275.524 1184.75 275.908 1184.86 276.336C1184.98 276.677 1186.16 276.889 1187.5 276.662C1188.95 276.43 1190 275.955 1189.78 275.618Z" fill="#C3A136"/>
<path d="M1187.4 272.772C1186.8 272.45 1185.05 272.349 1183.5 272.498C1181.95 272.647 1181.2 273.024 1181.7 273.349C1182.2 273.675 1183.86 273.867 1185.5 273.628C1187.05 273.479 1187.9 273.012 1187.4 272.772Z" fill="#C3A136"/>
<path d="M1182.24 270.559C1181.06 270.261 1178.62 270.1 1176.88 270.257C1175.03 270.332 1174.46 270.614 1175.55 271.003C1176.54 271.309 1178.89 271.56 1180.72 271.399C1182.66 271.234 1183.42 270.857 1182.24 270.559Z" fill="#C3A136"/>
<path d="M1174.48 268.97C1172.81 268.691 1169.79 268.554 1167.95 268.542C1166.1 268.53 1165.82 268.801 1167.49 269.08C1169.06 269.362 1171.79 269.598 1173.83 269.602C1175.67 269.527 1176.05 269.252 1174.48 268.97Z" fill="#C3A136"/>
<path d="M1164.21 267.742C1162.06 267.483 1158.84 267.267 1157.09 267.165C1155.33 267.063 1155.54 267.228 1157.49 267.495C1159.45 267.761 1162.48 268.071 1164.42 268.079C1166.37 268.087 1166.36 267.914 1164.21 267.742Z" fill="#C3A136"/>
<path d="M1152.1 266.502C1149.76 266.337 1146.63 266.031 1145.07 265.835C1143.5 265.639 1143.99 265.705 1146.24 265.961C1148.39 266.219 1151.42 266.529 1153.08 266.635C1154.84 266.824 1154.35 266.757 1152.1 266.502Z" fill="#C3A136"/>
<path d="M1138.43 265.239C1136.18 265.07 1133.35 264.666 1132.17 264.454C1130.89 264.246 1131.67 264.215 1133.82 264.474C1135.97 264.733 1138.71 265.054 1139.98 265.262C1141.26 265.47 1140.57 265.411 1138.43 265.239Z" fill="#C3A136"/>
<path d="M1123.29 263.689C1121.62 263.497 1119.67 263.23 1118.88 263.002C1118.09 262.775 1118.77 262.833 1120.34 263.03C1121.9 263.226 1123.86 263.579 1124.65 263.72C1125.63 263.854 1124.94 263.795 1123.29 263.689Z" fill="#C3A136"/>
<path d="M1107.64 261.813C1106.47 261.688 1105.09 261.398 1104.6 261.245C1104.11 261.091 1104.69 261.068 1105.86 261.28C1107.04 261.405 1108.41 261.696 1108.91 261.849C1109.49 261.912 1108.91 261.935 1107.64 261.813Z" fill="#C3A136"/>
<path d="M1091.48 259.44C1090.7 259.298 1089.81 259.075 1089.52 259C1089.22 258.839 1089.7 258.82 1090.49 259.047C1091.28 259.188 1092.16 259.412 1092.46 259.487C1092.75 259.561 1092.37 259.577 1091.48 259.44Z" fill="#C3A136"/>
<path d="M1074.92 256.65C1074.43 256.583 1074.03 256.426 1073.83 256.348C1073.73 256.265 1074.02 256.253 1074.42 256.324C1074.91 256.391 1075.3 256.548 1075.5 256.626C1075.7 256.705 1075.41 256.716 1074.92 256.65Z" fill="#C3A136"/>
<path d="M1058.22 253.26C1057.74 253.193 1057.34 253.036 1057.24 252.953C1057.14 252.871 1057.43 252.859 1057.92 252.926C1058.41 253.079 1058.8 253.15 1058.9 253.232C1058.91 253.405 1058.62 253.416 1058.22 253.26Z" fill="#C3A136"/>
<path d="M1041.2 249.19C1041.11 249.194 1041.01 249.112 1041.01 249.112C1041.01 249.112 1041.1 249.108 1041.2 249.19L1041.3 249.186C1041.3 249.186 1041.3 249.186 1041.2 249.19Z" fill="#C3A136"/>
<path d="M1188.1 288.318C1188.19 288.228 1188.1 288.232 1188.1 288.318C1188 288.322 1187.91 288.326 1187.81 288.416C1187.72 288.507 1187.72 288.507 1187.82 288.503C1187.91 288.326 1188 288.322 1188.1 288.318Z" fill="#C3A136"/>
<path d="M1196.62 282.003C1196.71 281.913 1196.61 281.83 1196.42 281.924C1196.23 281.932 1195.94 282.03 1195.85 282.121C1195.76 282.211 1195.85 282.207 1196.05 282.199C1196.34 282.187 1196.53 282.093 1196.62 282.003Z" fill="#C3A136"/>
<path d="M1200.95 277.328C1201.04 277.238 1200.75 277.163 1200.36 277.266C1199.98 277.368 1199.69 277.466 1199.6 277.556C1199.51 277.646 1199.8 277.721 1200.19 277.619C1200.58 277.603 1200.86 277.505 1200.95 277.328Z" fill="#C3A136"/>
<path d="M1201.75 273.922C1201.64 273.753 1200.86 273.698 1200.09 273.816C1199.32 273.934 1198.75 274.13 1198.85 274.299C1198.96 274.467 1199.64 274.526 1200.41 274.408C1201.28 274.287 1201.85 274.09 1201.75 273.922Z" fill="#C3A136"/>
<path d="M1199 271.524C1198.51 271.371 1197.34 271.332 1196.28 271.461C1195.21 271.591 1194.74 271.783 1195.13 271.94C1195.53 272.097 1196.7 272.222 1197.77 272.093C1198.82 271.877 1199.4 271.681 1199 271.524Z" fill="#C3A136"/>
<path d="M1193.57 269.84C1192.49 269.624 1190.35 269.624 1188.7 269.691C1187.15 269.754 1186.78 270.029 1187.76 270.162C1188.74 270.382 1190.78 270.472 1192.43 270.319C1194.08 270.252 1194.65 270.056 1193.57 269.84Z" fill="#C3A136"/>
<path d="M1184.97 268.804C1183.31 268.699 1180.58 268.55 1178.93 268.616C1177.28 268.597 1177.19 268.773 1178.75 268.97C1180.22 269.17 1182.85 269.236 1184.69 269.162C1186.44 269.091 1186.62 268.91 1184.97 268.804Z" fill="#C3A136"/>
<path d="M1173.94 268.04C1171.9 267.949 1168.98 267.808 1167.32 267.702C1165.76 267.592 1165.96 267.671 1167.91 267.851C1169.77 268.036 1172.69 268.177 1174.34 268.196C1176.09 268.212 1175.89 268.134 1173.94 268.04Z" fill="#C3A136"/>
<path d="M1160.88 267.271C1158.74 267.185 1155.81 266.957 1154.45 266.839C1153.08 266.722 1153.66 266.698 1155.71 266.875C1157.76 267.051 1160.59 267.196 1162.05 267.31C1163.51 267.424 1163.03 267.443 1160.88 267.271Z" fill="#C3A136"/>
<path d="M1145.87 266.408C1144.22 266.302 1142.17 266.125 1141.28 265.902C1140.4 265.764 1140.98 265.741 1142.54 265.851C1144.1 265.96 1146.15 266.137 1147.04 266.361C1148.11 266.49 1147.53 266.514 1145.87 266.408Z" fill="#C3A136"/>
<path d="M1130.27 265.31C1128.9 265.192 1127.34 264.996 1126.75 264.847C1126.16 264.697 1126.74 264.674 1128.1 264.792C1129.47 264.909 1131.04 265.105 1131.63 265.255C1132.22 265.404 1131.63 265.427 1130.27 265.31Z" fill="#C3A136"/>
<path d="M1113.57 263.736C1112.89 263.677 1112.1 263.536 1111.81 263.462C1111.51 263.387 1111.9 263.371 1112.58 263.43C1113.27 263.489 1114.05 263.63 1114.35 263.705C1114.64 263.779 1114.25 263.795 1113.57 263.736Z" fill="#C3A136"/>
<path d="M1096.66 261.826C1096.17 261.759 1095.68 261.692 1095.58 261.61C1095.48 261.528 1095.67 261.52 1096.16 261.586C1096.65 261.653 1097.14 261.72 1097.24 261.802C1097.34 261.885 1097.15 261.892 1096.66 261.826Z" fill="#C3A136"/>
<path d="M1079.34 259.413C1079.04 259.338 1078.75 259.264 1078.75 259.264C1078.64 259.181 1078.84 259.26 1079.13 259.248C1079.43 259.322 1079.72 259.397 1079.72 259.397C1079.72 259.397 1079.53 259.405 1079.34 259.413Z" fill="#C3A136"/>
<path d="M1061.69 256.321C1061.49 256.242 1061.29 256.164 1061.19 256.168C1061.19 256.081 1061.29 256.164 1061.48 256.156C1061.68 256.234 1061.87 256.226 1061.98 256.309C1061.98 256.395 1061.88 256.399 1061.69 256.321Z" fill="#C3A136"/>
<path d="M1210.07 279.035C1210.17 278.945 1210.07 278.949 1209.98 279.039C1209.88 279.043 1209.69 279.137 1209.69 279.137C1209.6 279.228 1209.7 279.224 1209.79 279.22C1209.89 279.129 1209.98 279.039 1210.07 279.035Z" fill="#C3A136"/>
<path d="M1214.43 274.792C1214.42 274.706 1214.23 274.714 1213.94 274.726C1213.65 274.824 1213.36 274.922 1213.27 275.012C1213.27 275.099 1213.47 275.091 1213.76 275.079C1214.05 274.981 1214.33 274.883 1214.43 274.792Z" fill="#C3A136"/>
<path d="M1214.67 271.927C1214.57 271.845 1213.98 271.782 1213.4 271.892C1212.83 272.002 1212.44 272.104 1212.45 272.277C1212.55 272.359 1213.14 272.422 1213.72 272.312C1214.39 272.198 1214.77 272.01 1214.67 271.927Z" fill="#C3A136"/>
<path d="M1210.98 270.173C1210.69 270.099 1209.72 270.138 1209.04 270.165C1208.27 270.283 1207.98 270.381 1208.28 270.456C1208.57 270.53 1209.44 270.495 1210.22 270.464C1210.99 270.346 1211.37 270.244 1210.98 270.173Z" fill="#C3A136"/>
<path d="M1204.32 269.059C1203.63 269 1202.37 269.051 1201.4 269.09C1200.53 269.126 1200.25 269.31 1200.93 269.369C1201.52 269.432 1202.88 269.463 1203.75 269.341C1204.72 269.302 1204.91 269.208 1204.32 269.059Z" fill="#C3A136"/>
<path d="M1194.77 268.58C1193.79 268.533 1192.14 268.514 1191.07 268.557C1190.11 268.596 1190.11 268.683 1191.08 268.643C1192.05 268.69 1193.71 268.71 1194.68 268.671C1195.74 268.627 1195.74 268.541 1194.77 268.58Z" fill="#C3A136"/>
<path d="M1182.8 268.2C1181.53 268.165 1179.78 268.149 1178.81 268.102C1177.83 268.055 1178.03 268.047 1179.29 268.083C1180.46 268.122 1182.31 268.133 1183.28 268.18C1184.26 268.228 1184.06 268.235 1182.8 268.2Z" fill="#C3A136"/>
<path d="M1168.99 267.981C1167.62 267.95 1165.87 267.848 1165.09 267.793C1164.31 267.738 1164.69 267.636 1165.96 267.757C1167.23 267.793 1168.98 267.895 1169.86 267.946C1170.64 268 1170.35 268.012 1168.99 267.981Z" fill="#C3A136"/>
<path d="M1153.61 267.565C1152.34 267.53 1150.88 267.416 1150.2 267.358C1149.61 267.208 1149.99 267.193 1151.26 267.228C1152.43 267.267 1153.99 267.377 1154.58 267.526C1155.26 267.585 1154.87 267.601 1153.61 267.565Z" fill="#C3A136"/>
<path d="M1137.15 266.848C1136.18 266.801 1135 266.675 1134.51 266.608C1134.12 266.538 1134.51 266.522 1135.58 266.479C1136.55 266.526 1137.72 266.652 1138.11 266.722C1138.61 266.875 1138.12 266.895 1137.15 266.848Z" fill="#C3A136"/>
<path d="M1119.5 265.659C1119.31 265.667 1119.01 265.593 1119.01 265.593C1118.91 265.597 1119.01 265.593 1119.3 265.581C1119.49 265.573 1119.79 265.648 1119.79 265.648C1119.89 265.644 1119.69 265.651 1119.5 265.659Z" fill="#C3A136"/>
<path d="M1227.9 272.17L1227.8 272.174C1227.7 272.178 1227.61 272.182 1227.61 272.268C1227.61 272.268 1227.71 272.264 1227.8 272.26C1227.8 272.26 1227.9 272.257 1227.9 272.17Z" fill="#C3A136"/>
<path d="M1227.49 269.937C1227.49 269.937 1227.2 269.949 1226.91 269.961C1226.62 269.972 1226.53 270.063 1226.53 270.063C1226.53 270.063 1226.82 270.051 1227.11 270.039C1227.4 270.027 1227.59 269.933 1227.49 269.937Z" fill="#C3A136"/>
<path d="M1223.25 268.725C1223.05 268.646 1222.57 268.666 1222.09 268.772C1221.7 268.787 1221.51 268.882 1221.7 268.874C1221.9 268.866 1222.38 268.846 1222.87 268.827C1223.25 268.811 1223.44 268.717 1223.25 268.725Z" fill="#C3A136"/>
<path d="M1215.65 268.254C1215.16 268.273 1214.29 268.309 1213.71 268.332C1213.12 268.356 1213.03 268.446 1213.52 268.427C1214 268.407 1214.88 268.458 1215.46 268.348C1216.04 268.324 1216.13 268.234 1215.65 268.254Z" fill="#C3A136"/>
<path d="M1205.15 268.246C1204.47 268.274 1203.3 268.235 1202.62 268.262C1201.95 268.29 1202.04 268.286 1202.72 268.258C1203.5 268.313 1204.57 268.27 1205.15 268.246C1205.93 268.215 1205.93 268.215 1205.15 268.246Z" fill="#C3A136"/>
<path d="M1192.33 268.419C1191.46 268.455 1190.19 268.42 1189.61 268.443C1188.93 268.471 1189.12 268.376 1190 268.427C1190.87 268.392 1192.04 268.431 1192.72 268.404C1193.4 268.376 1193.2 268.384 1192.33 268.419Z" fill="#C3A136"/>
<path d="M1177.57 268.585C1176.6 268.624 1175.43 268.585 1174.94 268.518C1174.45 268.452 1174.74 268.44 1175.62 268.404C1176.49 268.455 1177.66 268.495 1178.24 268.471C1178.82 268.447 1178.54 268.632 1177.57 268.585Z" fill="#C3A136"/>
<path d="M1161.44 268.633C1160.56 268.582 1159.59 268.535 1159.2 268.55C1158.81 268.48 1159.1 268.468 1159.97 268.433C1160.84 268.397 1161.82 268.531 1162.21 268.515C1162.6 268.586 1162.21 268.601 1161.44 268.633Z" fill="#C3A136"/>
<path d="M1143.93 268.304C1143.44 268.323 1142.86 268.26 1142.66 268.182C1142.46 268.103 1142.66 268.096 1143.14 268.162C1143.63 268.143 1144.22 268.205 1144.41 268.284C1144.71 268.272 1144.42 268.37 1143.93 268.304Z" fill="#C3A136"/>
<path d="M1125.82 267.566C1125.62 267.574 1125.33 267.5 1125.23 267.504C1125.13 267.508 1125.23 267.417 1125.52 267.492C1125.71 267.484 1126.01 267.559 1126.11 267.555C1126.21 267.637 1126.01 267.645 1125.82 267.566Z" fill="#C3A136"/>
<path d="M1240.79 267.754C1240.69 267.758 1240.7 267.845 1240.79 267.754Z" fill="#C3A136"/>
<path d="M1201.67 268.56C1201.47 268.568 1201.18 268.58 1201.09 268.584L1201.18 268.58L1201.86 268.553C1201.86 268.466 1201.86 268.553 1201.67 268.56Z" fill="#C3A136"/>
<path d="M1244 253.316C1150.52 286.405 932.186 353.855 681.707 353.855C410.718 353.855 186.334 291.565 68 230L68 449H1244V253.316Z" fill="#073818"/>
<path d="M1348.81 216.856C1218.42 267.857 952.433 351.921 655.556 351.921C328.248 351.921 108.047 255.888 2.26404 196.035" stroke="url(#paint0_linear)" stroke-width="6"/>
<defs>
<linearGradient id="paint0_linear" x1="40.0903" y1="223.789" x2="1408.01" y2="281.327" gradientUnits="userSpaceOnUse">
<stop stop-color="#985916"/>
<stop offset="0.458333" stop-color="#FEFCA7"/>
<stop offset="0.989583" stop-color="#985916"/>
</linearGradient>
</defs>
</svg>
